<?xml version="1.0" encoding="UTF-8"?>
<svg width="24px" height="24px" viewBox="0 0 24 24" version="1.1" xmlns="http://www.w3.org/2000/svg" xmlns:xlink="http://www.w3.org/1999/xlink">
    <title>bolt</title>
    <g id="02_assets" stroke="none" stroke-width="1" fill="none" fill-rule="evenodd">
        <g id="00_desktop" transform="translate(-204.000000, -452.000000)">
            <g id="00_vectors" transform="translate(180.000000, 316.000000)">
                <g id="00_action" transform="translate(0.000000, 64.000000)">
                    <g id="bolt" transform="translate(24.000000, 72.000000)">
                        <rect id="frame" x="0" y="0" width="24" height="24"></rect>
                        <path d="M10.15625,21.015625 L17.640625,11.5390625 C17.78125,11.3515625 17.859375,11.1796875 17.859375,10.9921875 C17.859375,10.6484375 17.59375,10.3984375 17.234375,10.3984375 L12.7265625,10.3984375 L15.0234375,4.21875 C15.3515625,3.3203125 14.421875,2.84375 13.84375,3.578125 L6.359375,13.0625 C6.21875,13.2421875 6.140625,13.4140625 6.140625,13.609375 C6.140625,13.953125 6.40625,14.203125 6.765625,14.203125 L11.2734375,14.203125 L8.9765625,20.375 C8.640625,21.2734375 9.578125,21.75 10.15625,21.015625 Z M11.2734375,17.3515625 L13.359375,12.859375 L8.46875,12.859375 L12.71875,7.2421875 L10.640625,11.7421875 L15.53125,11.7421875 L11.2734375,17.3515625 Z" id="shape" fill="#FFFFFF" fill-rule="nonzero"></path>
                    </g>
                </g>
            </g>
        </g>
    </g>
</svg>