<svg width="424" height="424" viewBox="0 0 424 424" xmlns="http://www.w3.org/2000/svg" xmlns:xlink="http://www.w3.org/1999/xlink">
    <defs>
        <rect id="bqpabxrwpa" x="0" y="0" width="424" height="424" rx="212"/>
    </defs>
    <g fill="none" fill-rule="evenodd">
        <g>
            <mask id="dqpph2gx0b" fill="#fff">
                <use xlink:href="#bqpabxrwpa"/>
            </mask>
            <use fill="#7AB6CC" xlink:href="#bqpabxrwpa"/>
            <path fill="#CC7A88" mask="url(#dqpph2gx0b)" transform="matrix(1 0 0 -1 0 636)" d="M212 212H11.293L212 424z"/>
            <path fill="#7A93CC" mask="url(#dqpph2gx0b)" transform="matrix(1 0 0 -1 0 212)" d="M0 0v212h199.353L212 0z"/>
            <path fill="#6EB7B8" mask="url(#dqpph2gx0b)" transform="matrix(1 0 0 -1 0 212)" d="M0 0v212h171L212 0z"/>
            <path fill="#E0A887" mask="url(#dqpph2gx0b)" transform="matrix(1 0 0 -1 0 212)" d="M0 0v212h94.086L212 0z"/>
            <path fill="#907ACC" mask="url(#dqpph2gx0b)" transform="matrix(1 0 0 -1 0 225.877)" d="M0 13.877V212L212 13.877z"/>
            <path fill="#E0C387" mask="url(#dqpph2gx0b)" transform="matrix(1 0 0 -1 0 536.452)" d="M11.293 112.452H0V424l212-99.548z"/>
            <path fill="#AB6EB8" mask="url(#dqpph2gx0b)" transform="matrix(1 0 0 -1 0 636)" d="M212 212H76.906L212 424z"/>
            <path fill="#CC7AB1" mask="url(#dqpph2gx0b)" transform="matrix(1 0 0 -1 0 636)" d="M212 212h83.964L212 424z"/>
            <path fill="#6EB891" mask="url(#dqpph2gx0b)" transform="matrix(1 0 0 -1 0 636)" d="M212 212h-55.338L212 424z"/>
        </g>
        <g stroke="#383A3D">
            <path d="m289.5 408.5-78-196M211.5 423.5v-211M158.5 416.5l53-204M98.5 390.5l113-178M66.5 365.5l145-153M20.5 122.5l191 90M57.5 67.5l154 145M109.5 27.5l102 185M172.5 4.5l39 208M199.5.5l12 212"/>
            <rect x=".5" y=".5" width="423" height="423" rx="211.5"/>
        </g>
    </g>
</svg>
