<?xml version="1.0" encoding="UTF-8"?>
<svg width="24px" height="24px" viewBox="0 0 24 24" version="1.1" xmlns="http://www.w3.org/2000/svg" xmlns:xlink="http://www.w3.org/1999/xlink">
    <title>git_hub_white</title>
    <g id="02_assets" stroke="none" stroke-width="1" fill="none" fill-rule="evenodd">
        <g id="00_desktop" transform="translate(-300.000000, -404.000000)">
            <g id="00_vectors" transform="translate(180.000000, 316.000000)">
                <g id="00_action" transform="translate(0.000000, 64.000000)">
                    <g id="git_hub_white" transform="translate(120.000000, 24.000000)">
                        <rect id="frame" x="0" y="0" width="24" height="24"></rect>
                        <path d="M11.9990792,2 C6.47773105,2 2,6.47711716 2,12.0003069 C2,16.4184904 4.86503576,20.1663034 8.83876117,21.4886276 C9.33908346,21.5807115 9.5214095,21.2719236 9.5214095,21.0067221 C9.5214095,20.7697597 9.512815,20.14052 9.50790386,19.3062402 C6.72635747,19.9103103 6.13947635,17.9654992 6.13947635,17.9654992 C5.68458209,16.8101538 5.02894503,16.5025937 5.02894503,16.5025937 C4.12099819,15.8825624 5.09770097,15.8948402 5.09770097,15.8948402 C6.10141502,15.9654379 6.62936247,16.9255655 6.62936247,16.9255655 C7.52134811,18.4535437 8.97013414,18.0121551 9.53982627,17.7561619 C9.63068234,17.1103472 9.88913104,16.6695724 10.174591,16.4197182 C7.95414224,16.1674085 5.6195095,15.3091869 5.6195095,11.4772706 C5.6195095,10.38577 6.00933116,9.49255655 6.64900703,8.79394702 C6.54587311,8.54102336 6.20270727,7.52380368 6.74722981,6.14745695 C6.74722981,6.14745695 7.5864207,5.87857209 9.4968538,7.17265723 C10.2943,6.95042819 11.150066,6.83992756 12.0003069,6.83563031 C12.849934,6.83992756 13.7050861,6.95042819 14.5037601,7.17265723 C16.4129654,5.87857209 17.2509285,6.14745695 17.2509285,6.14745695 C17.7966788,7.52380368 17.453513,8.54102336 17.350993,8.79394702 C17.9918966,9.49255655 18.3786488,10.38577 18.3786488,11.4772706 C18.3786488,15.3190092 16.0403327,16.164339 13.8131312,16.4117376 C14.1716443,16.7205255 14.4914822,17.3307345 14.4914822,18.2638509 C14.4914822,19.6002947 14.4792044,20.6789036 14.4792044,21.0067221 C14.4792044,21.2743792 14.6596888,21.5856226 15.1667639,21.4880138 C19.1374198,20.1626201 22,16.4172627 22,12.0003069 C22,6.47711716 17.5222689,2 11.9990792,2" id="shape" fill="currentColor"></path>
                    </g>
                </g>
            </g>
        </g>
    </g>
</svg>
