<?xml version="1.0" encoding="UTF-8"?>
<svg width="190px" height="40px" viewBox="0 0 190 40" version="1.1" xmlns="http://www.w3.org/2000/svg" xmlns:xlink="http://www.w3.org/1999/xlink">
    <title>globochain_logo_light_l</title>
    <defs>
        <linearGradient x1="129.046312%" y1="-30.0806615%" x2="-25.2085636%" y2="125.431716%" id="linearGradient-1">
            <stop stop-color="#050D1C" offset="7%"></stop>
            <stop stop-color="#29F4B9" offset="100%"></stop>
        </linearGradient>
        <linearGradient x1="110.536672%" y1="-10.5591014%" x2="24.033467%" y2="75.9543735%" id="linearGradient-2">
            <stop stop-color="#072A54" offset="0%"></stop>
            <stop stop-color="#2583F4" offset="100%"></stop>
        </linearGradient>
    </defs>
    <g id="02_assets" stroke="none" stroke-width="1" fill="none" fill-rule="evenodd">
        <g id="00_desktop" transform="translate(-540.000000, -404.000000)">
            <g id="00_vectors" transform="translate(180.000000, 316.000000)">
                <g id="01_logo" transform="translate(336.000000, 64.000000)">
                    <g id="globochain_logo_light_l" transform="translate(24.000000, 24.000000)">
                        <g id="sign" transform="translate(48.000000, 4.000000)">
                            <rect id="frame" x="0" y="0" width="142" height="32"></rect>
                            <path d="M13.1083288,11.4617448 C12.7314665,10.7439041 12.1525559,10.1521998 11.4431231,9.7597389 C10.6874284,9.3624111 9.84339155,9.16300739 8.98978132,9.18013691 C8.02328446,9.16443839 7.07023491,9.4079955 6.22977183,9.88547267 C5.41134856,10.3607647 4.74784666,11.062607 4.31923193,11.906413 C3.85140142,12.8444344 3.61880108,13.8821898 3.64149627,14.9301567 C3.61650619,15.9938538 3.85457644,17.047262 4.33456532,17.9968339 C4.7677874,18.8416104 5.43678264,19.542564 6.2604386,20.0147075 C7.13965712,20.4981998 8.13075489,20.7414788 9.13391515,20.7200432 C10.3274777,20.7701807 11.4994151,20.3904164 12.4367265,19.6497729 C13.3261812,18.8780963 13.9219645,17.8230183 14.123399,16.6628293 L8.06671148,16.6628293 L8.06671148,13.9825534 L17.5918109,13.9825534 L17.5918109,17.0492306 C17.354054,18.2843544 16.8369065,19.4487229 16.079939,20.4532423 C15.2918054,21.5073034 14.2705696,22.3648056 13.0960621,22.9587176 C11.8273353,23.6019244 10.4212857,23.927126 8.99898135,23.9063209 C7.39226599,23.9281781 5.80734191,23.5330036 4.39896554,22.7593836 C3.0509631,22.0142733 1.93463452,20.9117397 1.17282112,19.573106 C0.377794987,18.1588359 -0.0265317316,16.5584642 0.00135042193,14.93629 C-0.0259145786,13.3102961 0.378301653,11.706129 1.17282112,10.2872074 C1.93020301,8.94125612 3.04727204,7.83268192 4.39896554,7.08559638 C5.79920929,6.31386265 7.37574345,5.91867245 8.97444793,5.9386591 C10.8004595,5.89684444 12.5971097,6.40315372 14.132599,7.3922641 C15.5878863,8.35078074 16.6585772,9.79176125 17.1563427,11.4617448 L13.1083288,11.4617448 Z M23.5227646,5.11065626 L23.5227646,23.7591204 L19.9960858,23.7591204 L19.9960858,5.11065626 L23.5227646,5.11065626 Z M29.1593173,23.0936514 C28.0933996,22.5045033 27.21539,21.6264937 26.6262419,20.560576 C25.9964459,19.4014398 25.6793732,18.098271 25.7062388,16.779363 C25.6790817,15.4569871 26.0062646,14.1514319 26.653842,12.99815 C27.2606693,11.9288823 28.1552725,11.0512787 29.2359843,10.4650747 C31.5256537,9.27114341 34.2542065,9.27114341 36.543876,10.4650747 C37.624834,11.0520154 38.5202475,11.929372 39.1290849,12.99815 C39.7742018,14.1522832 40.1002254,15.4574359 40.0736215,16.779363 C40.0992597,18.1043006 39.7642967,19.4112922 39.1045515,20.560576 C38.4795671,21.6295541 37.5724421,22.5059112 36.4825425,23.0936514 C35.350254,23.6953754 34.0846709,24.0022793 32.8025298,23.9860545 C31.5314343,24.008223 30.2762691,23.7007709 29.1593173,23.0936514 Z M34.5904027,20.447109 C35.1680538,20.122601 35.6373532,19.6351696 35.9397406,19.0456375 C36.2957506,18.3445854 36.4697533,17.5652641 36.4457424,16.779363 C36.4457424,15.452514 36.0961412,14.4302883 35.3969388,13.7126858 C34.7323448,13.0132124 33.8039866,12.6258399 32.83933,12.6454822 C31.8812845,12.6262714 30.9602773,13.0154136 30.3062546,13.7157525 C29.6254523,14.4313105 29.2850511,15.4535363 29.2850511,16.7824297 C29.2850511,18.1113232 29.6172745,19.1335489 30.2817212,19.8491069 C30.9222137,20.5543984 31.8378432,20.9461714 32.7902631,20.9224439 C33.418014,20.919347 34.0345372,20.755715 34.5812026,20.447109 L34.5904027,20.447109 Z M47.5808473,10.2013404 C48.4277388,9.76844492 49.3684465,9.55143958 50.3193901,9.56960492 C51.4602168,9.55534458 52.582175,9.86133319 53.5578012,10.452808 C54.5369546,11.0603787 55.3271268,11.9291433 55.839409,12.9613499 C56.4232324,14.1292623 56.7137426,15.421822 56.6858119,16.7272295 C56.7118756,18.0412922 56.4215815,19.3423565 55.839409,20.5207092 C55.3252007,21.5684209 54.5313305,22.453565 53.5455345,23.078318 C52.5769397,23.6898981 51.4525862,24.0093167 50.3071234,23.9983212 C49.3597923,24.0211676 48.4213964,23.8105288 47.574714,23.3849857 C46.8310418,23.0064614 46.1870177,22.4580429 45.6948408,21.7841802 L45.6948408,23.7744537 L42.168162,23.7744537 L42.168162,5.11065626 L45.6948408,5.11065626 L45.6948408,11.8389461 C46.1760995,11.1434351 46.824697,10.5802626 47.5808473,10.2013404 L47.5808473,10.2013404 Z M52.5703311,14.546822 C51.9377431,13.3779655 50.7099645,12.655465 49.3809868,12.6700156 C48.747852,12.6696001 48.1261991,12.8390455 47.5808473,13.1606839 C47.0043391,13.5015844 46.5331563,13.9950529 46.2192426,14.5866888 C45.5296665,15.9671471 45.5296665,17.591579 46.2192426,18.9720372 C46.5332215,19.5628274 47.0044551,20.0552877 47.5808473,20.3949755 C48.6994578,21.05728 50.090116,21.05728 51.2087265,20.3949755 C51.7822946,20.0463518 52.2523569,19.5508807 52.5703311,18.9597705 C52.9285619,18.2715211 53.1038606,17.5027411 53.0793995,16.7272295 C53.1005375,15.9686924 52.9251718,15.2175779 52.5703311,14.546822 Z M61.4943618,23.0936514 C60.4274297,22.5058522 59.5490856,21.6275082 58.9612864,20.560576 C58.3314904,19.4014398 58.0144177,18.098271 58.0412833,16.779363 C58.0146794,15.4574359 58.340703,14.1522832 58.9858199,12.99815 C59.5937416,11.9286665 60.4893841,11.0510855 61.5710287,10.4650747 C63.8606982,9.27114341 66.589251,9.27114341 68.8789205,10.4650747 C69.9596323,11.0512787 70.8542354,11.9288823 71.4610627,12.99815 C72.1054353,14.152329 72.4294285,15.4578308 72.399466,16.779363 C72.4266547,18.1044805 72.0915871,19.4118803 71.430396,20.560576 C70.8054116,21.6295541 69.8982865,22.5059112 68.808387,23.0936514 C67.6760985,23.6953754 66.4105153,24.0022793 65.1283743,23.9860545 C63.8603838,24.0066308 62.6085882,23.6992278 61.4943618,23.0936514 L61.4943618,23.0936514 Z M66.9254471,20.447109 C67.5013293,20.1203178 67.9700491,19.6334884 68.2747851,19.0456375 C68.6283733,18.3438227 68.8012405,17.5648663 68.7777202,16.779363 C68.7777202,15.452514 68.4291412,14.4302883 67.7319833,13.7126858 C67.0679259,13.0120827 66.139497,12.6235675 65.1743745,12.6424155 C64.2158773,12.6208469 63.293946,13.0103796 62.6412991,13.7126858 C61.9604967,14.4282438 61.6200956,15.4504696 61.6200956,16.779363 C61.6200956,18.1082565 61.9523189,19.1304822 62.6167657,19.8460402 C63.2563099,20.5508506 64.1708029,20.9426163 65.1222409,20.9193773 C65.7538792,20.9193146 66.3748691,20.7566744 66.9254471,20.447109 L66.9254471,20.447109 Z M74.5706734,12.9858833 C75.1344016,11.931092 75.9849013,11.0572035 77.0240152,10.4650747 C78.1170926,9.85615982 79.3517902,9.54722091 80.6028275,9.56960492 C82.3344779,9.56960492 83.7655939,10.0030286 84.8961756,10.8698761 C86.0580483,11.7794267 86.8643127,13.0674964 87.1747168,14.5100219 L83.3659037,14.5100219 C83.1898271,13.9378422 82.8324853,13.4384247 82.3477668,13.0870837 C81.8248828,12.729983 81.2019565,12.5484752 80.569094,12.5688152 C79.641607,12.5332409 78.7524678,12.9408104 78.1740191,13.6666857 C77.5954394,14.3965548 77.3061495,15.434114 77.3061495,16.779363 C77.3061495,18.1246121 77.5954394,19.1580823 78.1740191,19.8797737 C78.7527872,20.6049002 79.6420417,21.011384 80.569094,20.9745775 C82.0002101,20.9745775 82.93248,20.3356864 83.3659037,19.0579042 L87.1716501,19.0579042 C86.8347583,20.477199 86.0259991,21.7400742 84.8777755,22.6397832 C83.7369716,23.5291196 82.3058556,23.9737878 80.5844274,23.9737878 C79.3336683,23.9971081 78.0989881,23.6892315 77.0056151,23.0813847 C75.9665013,22.4892558 75.1160015,21.6153674 74.5522734,20.560576 C73.9442049,19.3903458 73.6414688,18.0855217 73.672137,16.7670963 C73.6488122,15.4511753 73.9578612,14.150638 74.5706734,12.9858833 L74.5706734,12.9858833 Z M99.9014272,10.2902741 C100.738218,10.759215 101.413787,11.4700585 101.839567,12.3296144 C102.326589,13.3380083 102.564279,14.4486297 102.532636,15.5680255 L102.532636,23.7591204 L99.0059574,23.7591204 L99.0059574,16.0464272 C99.0059574,14.9403789 98.727912,14.0878427 98.1718212,13.4888184 C97.5806342,12.8781561 96.7543741,12.5527952 95.9055468,12.5964153 C95.0446495,12.5508039 94.2053511,12.8755856 93.5994055,13.4888184 C93.0351369,14.0878427 92.7530026,14.9403789 92.7530026,16.0464272 L92.7530026,23.7591204 L89.2263238,23.7591204 L89.2263238,5.11065626 L92.7530026,5.11065626 L92.7530026,11.5506784 C93.2274873,10.929874 93.8522881,10.4401652 94.5684755,10.1277402 C95.361945,9.77680981 96.2217505,9.60108315 97.0892842,9.6125384 C98.0696001,9.5905452 99.0387575,9.82411529 99.9014272,10.2902741 L99.9014272,10.2902741 Z M105.396913,12.9736166 C105.91134,11.9357657 106.705924,11.0625737 107.690787,10.452808 C108.666413,9.86133319 109.788372,9.55534458 110.929198,9.56960492 C111.879469,9.54847197 112.819902,9.76565716 113.664674,10.2013404 C114.401753,10.5830128 115.043268,11.1259949 115.541481,11.7898792 L115.541481,9.79653903 L119.09576,9.79653903 L119.09576,23.7591204 L115.541481,23.7591204 L115.541481,21.71978 C115.053937,22.4030134 114.410555,22.9601908 113.664674,23.3451189 C112.812043,23.7842993 111.86358,24.0045537 110.904665,23.9860545 C109.767177,23.9949324 108.651275,23.6754947 107.690787,23.0660513 C106.70582,22.4403197 105.912184,21.5554366 105.396913,20.5084425 C104.8158,19.3298255 104.526561,18.0287741 104.553576,16.7149628 C104.529411,15.4181424 104.81872,14.1346595 105.396913,12.9736166 L105.396913,12.9736166 Z M115.026279,14.5744221 C114.713034,13.9854902 114.241427,13.495826 113.664674,13.1606839 C113.105405,12.8375735 112.470563,12.6682825 111.824668,12.6700156 C111.18772,12.6650798 110.560996,12.83023 110.009195,13.1484172 C109.441581,13.4843941 108.975355,13.9675743 108.659857,14.546822 C108.302888,15.2170046 108.125402,15.9681506 108.144656,16.7272295 C108.126945,17.4939746 108.304218,18.2526613 108.659857,18.9321704 C108.974872,19.5294394 109.445291,20.0305842 110.021462,20.3827088 C110.564754,20.7131936 111.188756,20.8872349 111.824668,20.8856885 C112.470753,20.88885 113.105973,20.719458 113.664674,20.3949755 C114.241312,20.0610547 114.712973,19.5723972 115.026279,18.9843039 C115.696904,17.5908315 115.696904,15.9678946 115.026279,14.5744221 L115.026279,14.5744221 Z M122.272837,7.54253128 C121.878409,7.15303201 121.656403,6.62179079 121.656403,6.06745954 C121.656403,5.5131283 121.878409,4.98188708 122.272837,4.59238781 C123.155393,3.8025374 124.490693,3.8025374 125.373248,4.59238781 C125.767676,4.98188708 125.989682,5.5131283 125.989682,6.06745954 C125.989682,6.62179079 125.767676,7.15303201 125.373248,7.54253128 C124.490693,8.33238169 123.155393,8.33238169 122.272837,7.54253128 L122.272837,7.54253128 Z M125.563382,9.79653903 L125.563382,23.7591204 L122.033637,23.7591204 L122.033637,9.79653903 L125.563382,9.79653903 Z M140.286499,11.1704104 C141.308725,12.2233029 141.819838,13.6891746 141.819838,15.5680255 L141.819838,23.7591204 L138.296226,23.7591204 L138.296226,16.0464272 C138.296226,14.9403789 138.019203,14.0878427 137.465156,13.4888184 C136.872795,12.8780128 136.045559,12.5527077 135.195815,12.5964153 C134.335108,12.5519919 133.496279,12.876592 132.889674,13.4888184 C132.32745,14.0878427 132.046338,14.9403789 132.046338,16.0464272 L132.046338,23.7591204 L128.519659,23.7591204 L128.519659,9.79653903 L132.046338,9.79653903 L132.046338,11.535345 C132.52475,10.9234408 133.143173,10.4354333 133.849544,10.1124068 C134.603675,9.76373206 135.426104,9.58772169 136.256885,9.59720501 C137.919025,9.59720501 139.262229,10.1216068 140.286499,11.1704104 Z" id="shape" fill="#FFFFFF" fill-rule="nonzero"></path>
                        </g>
                        <g id="mark">
                            <rect id="frame" x="0" y="0" width="40" height="40"></rect>
                            <path d="M31.2064002,15.6279188 C33.0073337,13.8282541 33.1407965,10.9529551 31.5143176,8.99420011 C29.8878387,7.03544515 27.0369855,6.63821369 24.9369989,8.07773133 C22.8370123,9.51724897 22.1793765,12.3195109 23.4197408,14.5429432 L6.80270036,31.3415005 C6.54511275,31.598788 6.40037628,31.9479249 6.40037628,32.3119967 C6.40037628,32.6760685 6.54511275,33.0252054 6.80270036,33.2824929 L6.80270036,33.2824929 C7.34181893,33.8149477 8.2102629,33.8103332 8.7436928,33.2721795 L25.3669213,16.4736222 C27.2857374,17.516993 29.6624265,17.1727886 31.2064002,15.6279188 L31.2064002,15.6279188 Z" id="shape" fill="url(#linearGradient-1)" fill-rule="nonzero"></path>
                            <path d="M23.9972944,39.3859962 C28.2684403,32.9916535 32.5395863,26.5973107 36.8107322,20.2029679 C41.1852581,15.4527772 41.0350352,8.09782425 36.4701958,3.53021768 C31.9053565,-1.03738889 24.5504959,-1.19206905 19.797655,3.17957727 L0.614626707,15.9930151 C0.310491578,16.1939574 0.0990055529,16.5078485 0.0269959093,16.8651867 C-0.0450137343,17.2225248 0.0283943538,17.5938269 0.230966141,17.8968791 L0.230966141,17.8968791 C0.654653072,18.5221432 1.504545,18.6864003 2.13070475,18.2640382 L16.4334057,8.61476863 C15.1947419,12.8424212 16.362232,17.4090528 19.4779475,20.5234791 C22.593663,23.6379053 27.1607774,24.8035052 31.387917,23.5630919 L21.7242086,37.8678555 C21.5210132,38.1686662 21.4457524,38.5379223 21.5150087,38.8942635 C21.584265,39.2506047 21.7923555,39.5647903 22.0934304,39.7675941 L22.0934304,39.7675941 C22.3960645,39.9709161 22.7673582,40.0449766 23.1248402,39.9733253 C23.4823222,39.9016739 23.796394,39.6902434 23.9972944,39.3859962 Z M21.4189303,18.5713791 C18.7585393,15.9115629 17.9624447,11.9110192 19.4018947,8.43534857 C20.8413447,4.9596779 24.2328353,2.69342381 27.9947899,2.69342381 C31.7567446,2.69342381 35.1482352,4.9596779 36.5876852,8.43534857 C38.0271352,11.9110192 37.2310406,15.9115629 34.5706495,18.5713791 C30.9367903,22.198023 25.0527896,22.198023 21.4189303,18.5713791 L21.4189303,18.5713791 Z" id="shape" fill="url(#linearGradient-2)" fill-rule="nonzero"></path>
                        </g>
                    </g>
                </g>
            </g>
        </g>
    </g>
</svg>