<?xml version="1.0" encoding="UTF-8"?>
<svg width="154px" height="32px" viewBox="0 0 154 32" version="1.1" xmlns="http://www.w3.org/2000/svg" xmlns:xlink="http://www.w3.org/1999/xlink">
    <title>globochain_logo_dark_s</title>
    <defs>
        <linearGradient x1="129.046312%" y1="-30.0806615%" x2="-25.2085636%" y2="125.431716%" id="linearGradient-1">
            <stop stop-color="#050D1C" offset="7%"></stop>
            <stop stop-color="#29F4B9" offset="100%"></stop>
        </linearGradient>
        <linearGradient x1="110.536672%" y1="-10.5591014%" x2="24.033467%" y2="75.9543735%" id="linearGradient-2">
            <stop stop-color="#072A54" offset="0%"></stop>
            <stop stop-color="#2583F4" offset="100%"></stop>
        </linearGradient>
    </defs>
    <g id="02_assets" stroke="none" stroke-width="1" fill="none" fill-rule="evenodd">
        <g id="00_desktop" transform="translate(-874.000000, -476.000000)">
            <g id="00_vectors" transform="translate(180.000000, 316.000000)">
                <g id="01_logo" transform="translate(336.000000, 64.000000)">
                    <g id="globochain_logo_dark_s" transform="translate(358.000000, 96.000000)">
                        <g id="sign" transform="translate(38.000000, 3.000000)">
                            <rect id="frame" x="0" y="0" width="116" height="26"></rect>
                            <path d="M10.6505172,9.31266761 C10.3443166,8.72942206 9.87395164,8.24866233 9.29753751,7.92978786 C8.68353557,7.60695902 7.99775564,7.44494351 7.30419732,7.45886124 C6.51891862,7.44610619 5.74456586,7.64399634 5.06168961,8.03194654 C4.39672071,8.41812129 3.85762541,8.98836816 3.50937594,9.67396052 C3.12926365,10.436103 2.94027588,11.2792792 2.95871572,12.1307523 C2.93841128,12.9950062 3.13184335,13.8509004 3.52183432,14.6224275 C3.87382726,15.3088084 4.41738589,15.8783332 5.08660637,16.2619498 C5.80097141,16.6547873 6.60623835,16.8524516 7.42130606,16.8350351 C8.39107567,16.8757718 9.34327477,16.5672133 10.1048403,15.9654405 C10.8275222,15.3384533 11.3115961,14.4812024 11.4752617,13.5385488 L6.55420308,13.5385488 L6.55420308,11.3608247 L14.2933463,11.3608247 L14.2933463,13.8524999 C14.1001689,14.8560379 13.6799865,15.8020874 13.0649505,16.6182594 C12.4245919,17.474684 11.5948378,18.1714046 10.6405505,18.6539581 C9.60970995,19.1765635 8.46729465,19.4407898 7.31167235,19.4238857 C6.00621612,19.4416447 4.7184653,19.1205655 3.5741595,18.4919992 C2.47890752,17.8865971 1.57189054,16.9907885 0.952917156,15.9031486 C0.306958427,14.7540542 -0.0215570319,13.4537521 0.00109721782,12.1357357 C-0.0210555952,10.8146155 0.307370093,9.51122983 0.952917156,8.358356 C1.56828995,7.2647706 2.47590853,6.36405406 3.5741595,5.75704706 C4.71185755,5.13001341 5.99279155,4.80892137 7.29173895,4.82516052 C8.77537334,4.79118611 10.2351516,5.20256239 11.4827367,6.00621458 C12.6651577,6.78500935 13.535094,7.95580601 13.9395285,9.31266761 L10.6505172,9.31266761 Z M19.1122462,4.15240821 L19.1122462,19.3042853 L16.2468197,19.3042853 L16.2468197,4.15240821 L19.1122462,4.15240821 Z M23.6919453,18.7635918 C22.8258872,18.284909 22.1125044,17.5715261 21.6338216,16.705468 C21.1221123,15.7636698 20.8644907,14.7048452 20.886319,13.6332325 C20.8642539,12.558802 21.13009,11.4980384 21.6562467,10.5609969 C22.1492938,9.69221683 22.8761589,8.97916391 23.7542372,8.50287316 C25.6145937,7.53280402 27.8315428,7.53280402 29.6918993,8.50287316 C30.5701776,8.97976254 31.2977011,9.69261474 31.7923815,10.5609969 C32.316539,11.4987301 32.5814331,12.5591667 32.5598175,13.6332325 C32.5806485,14.7097443 32.3084911,15.7716749 31.7724481,16.705468 C31.2646483,17.5740127 30.5276092,18.2860528 29.6420658,18.7635918 C28.7220814,19.2524925 27.6937951,19.5018519 26.6520555,19.4886693 C25.6192904,19.5066812 24.5994686,19.2568763 23.6919453,18.7635918 Z M28.1047022,16.613276 C28.5740437,16.3496133 28.9553495,15.9535753 29.2010393,15.4745805 C29.4902973,14.9049757 29.6316746,14.2717771 29.6121657,13.6332325 C29.6121657,12.5551676 29.3281147,11.7246092 28.7600127,11.1415572 C28.2200301,10.5732351 27.4657391,10.258495 26.6819556,10.2744543 C25.9035436,10.2588455 25.1552253,10.5750235 24.6238319,11.1440489 C24.07068,11.7254398 23.794104,12.5559982 23.794104,13.6357241 C23.794104,14.7154501 24.0640355,15.5460085 24.6038985,16.1273994 C25.1242986,16.7004487 25.8682476,17.0187643 26.6420888,16.9994857 C27.1521364,16.9969695 27.6530615,16.8640185 28.0972271,16.613276 L28.1047022,16.613276 Z M38.6594384,8.28858909 C39.3475378,7.9368615 40.1118627,7.76054466 40.8845044,7.775304 C41.8114261,7.76371747 42.7230172,8.01233322 43.5157135,8.49290646 C44.3112756,8.98655771 44.9532905,9.69242896 45.3695198,10.5310968 C45.8438764,11.4800256 46.0799159,12.5302303 46.0572222,13.590874 C46.0783989,14.6585499 45.842535,15.7156647 45.3695198,16.6730762 C44.9517256,17.524342 44.306706,18.2435216 43.5057468,18.7511334 C42.7187635,19.2480422 41.8052263,19.5075698 40.8745377,19.498636 C40.1048313,19.5171987 39.3423846,19.3460546 38.6544551,19.0003009 C38.0502215,18.6927499 37.5269519,18.2471598 37.1270582,17.6996464 L37.1270582,19.3167437 L34.2616317,19.3167437 L34.2616317,4.15240821 L37.1270582,4.15240821 L37.1270582,9.61914367 C37.5180808,9.05404104 38.0450663,8.59646339 38.6594384,8.28858909 L38.6594384,8.28858909 Z M42.713394,11.8192929 C42.1994163,10.8695969 41.2018461,10.2825653 40.1220518,10.2943877 C39.6076298,10.2940501 39.1025368,10.4317245 38.6594384,10.6930557 C38.1910255,10.9700373 37.8081895,11.3709805 37.5531346,11.8516847 C36.9928541,12.973307 36.9928541,14.2931579 37.5531346,15.4147803 C37.8082425,15.8947973 38.1911197,16.2949213 38.6594384,16.5709176 C39.5683094,17.10904 40.6982193,17.10904 41.6070902,16.5709176 C42.0731144,16.2876608 42.45504,15.8850906 42.713394,15.4048136 C43.0044565,14.8456109 43.1468868,14.2209771 43.1270121,13.590874 C43.1441867,12.9745626 43.0017021,12.3642821 42.713394,11.8192929 Z M49.964169,18.7635918 C49.0972866,18.2860049 48.3836321,17.5723504 47.9060452,16.705468 C47.394336,15.7636698 47.1367144,14.7048452 47.1585427,13.6332325 C47.136927,12.5591667 47.4018212,11.4987301 47.9259786,10.5609969 C48.419915,9.6920415 49.1476246,8.97900699 50.0264609,8.50287316 C51.8868173,7.53280402 54.1037665,7.53280402 55.9641229,8.50287316 C56.8422012,8.97916391 57.5690663,9.69221683 58.0621135,10.5609969 C58.5856662,11.4987673 58.8489106,12.5594875 58.8245661,13.6332325 C58.8466569,14.7098904 58.5744145,15.7721528 58.0371967,16.705468 C57.5293969,17.5740127 56.7923578,18.2860528 55.9068144,18.7635918 C54.98683,19.2524925 53.9585437,19.5018519 52.9168041,19.4886693 C51.8865618,19.5053875 50.8694779,19.2556226 49.964169,18.7635918 L49.964169,18.7635918 Z M54.3769258,16.613276 C54.8448301,16.3477582 55.2256649,15.9522093 55.4732629,15.4745805 C55.7605533,14.904356 55.9010079,14.2714539 55.8818976,13.6332325 C55.8818976,12.5551676 55.5986772,11.7246092 55.0322364,11.1415572 C54.4926898,10.5723172 53.7383413,10.2566486 52.9541792,10.2719626 C52.1754003,10.2544381 51.4263311,10.5709334 50.8960555,11.1415572 C50.3429036,11.7229481 50.0663277,12.5535065 50.0663277,13.6332325 C50.0663277,14.7129584 50.3362591,15.5435168 50.8761221,16.1249077 C51.3957518,16.6975661 52.1387774,17.0158757 52.9118208,16.996994 C53.4250269,16.9969431 53.9295812,16.8647979 54.3769258,16.613276 L54.3769258,16.613276 Z M60.5886722,10.5510302 C61.0467013,9.69401224 61.7377323,8.98397786 62.5820123,8.50287316 C63.4701377,8.00812985 64.4733295,7.75711699 65.4897973,7.775304 C66.8967633,7.775304 68.0595451,8.12746076 68.9781427,8.83177429 C69.9221642,9.57078417 70.577254,10.6173408 70.8294574,11.7893928 L67.7347967,11.7893928 C67.5917345,11.3244968 67.3013943,10.9187201 66.9075605,10.6332555 C66.4827173,10.3431112 65.9765897,10.1956361 65.4623889,10.2121624 C64.7088057,10.1832582 63.9863801,10.5144085 63.5163906,11.1041821 C63.0462945,11.6972008 62.8112465,12.5402176 62.8112465,13.6332325 C62.8112465,14.7262473 63.0462945,15.5659419 63.5163906,16.1523161 C63.9866396,16.7414814 64.7091589,17.0717495 65.4623889,17.0418442 C66.6251707,17.0418442 67.38264,16.5227452 67.7347967,15.4845472 L70.8269657,15.4845472 C70.5532411,16.6377242 69.8961243,17.6638103 68.9631926,18.3948238 C68.0362894,19.1174097 66.8735077,19.4787026 65.4748473,19.4787026 C64.4586055,19.4976503 63.4554278,19.2475006 62.5670623,18.7536251 C61.7227823,18.2725204 61.0317512,17.562486 60.5737221,16.705468 C60.0796665,15.754656 59.8336934,14.6944864 59.8586113,13.6232658 C59.8396599,12.5540799 60.0907622,11.4973934 60.5886722,10.5510302 L60.5886722,10.5510302 Z M81.1699096,8.36084767 C81.8498024,8.74186222 82.3987019,9.31942254 82.7446483,10.0178117 C83.1403534,10.8371317 83.3334764,11.7395116 83.3077669,12.6490207 L83.3077669,19.3042853 L80.4423404,19.3042853 L80.4423404,13.0377221 C80.4423404,12.1390579 80.2164285,11.4463722 79.7646047,10.9596649 C79.2842653,10.4635018 78.612929,10.1991461 77.9232567,10.2345874 C77.2237778,10.1975282 76.5418477,10.4614133 76.049517,10.9596649 C75.5910487,11.4463722 75.3618146,12.1390579 75.3618146,13.0377221 L75.3618146,19.3042853 L72.4963881,19.3042853 L72.4963881,4.15240821 L75.3618146,4.15240821 L75.3618146,9.3849262 C75.7473334,8.88052261 76.2549841,8.48263424 76.8368863,8.22878889 C77.4815803,7.94365797 78.1801722,7.80088006 78.8850434,7.81018745 C79.6815501,7.79231798 80.4689904,7.98209368 81.1699096,8.36084767 L81.1699096,8.36084767 Z M85.6349916,10.5410635 C86.052964,9.69780964 86.6985631,8.98834113 87.4987647,8.49290646 C88.291461,8.01233322 89.203052,7.76371747 90.1299737,7.775304 C90.9020685,7.75813348 91.6661703,7.93459644 92.352548,8.28858909 C92.9514241,8.59869791 93.4726555,9.03987086 93.8774533,9.57927686 L93.8774533,7.95968796 L96.7653049,7.95968796 L96.7653049,19.3042853 L93.8774533,19.3042853 L93.8774533,17.6473213 C93.4813238,18.2024484 92.9585757,18.655155 92.352548,18.9679091 C91.6597852,19.3247432 90.8891584,19.5036999 90.1100403,19.4886693 C89.1858314,19.4958826 88.2791607,19.2363395 87.4987647,18.7411667 C86.6984787,18.2327597 86.0536493,17.5137922 85.6349916,16.6631095 C85.1628374,15.7054833 84.9278304,14.648379 84.9497809,13.5809073 C84.9301461,12.5272407 85.1652102,11.4844109 85.6349916,10.5410635 L85.6349916,10.5410635 Z M93.4588518,11.841718 C93.2043401,11.3632108 92.8211592,10.9653586 92.352548,10.6930557 C91.8981412,10.4305285 91.3823325,10.2929795 90.8575429,10.2943877 C90.3400226,10.2903773 89.8308093,10.4245619 89.3824711,10.683089 C88.9212845,10.9560702 88.5424755,11.3486541 88.286134,11.8192929 C87.9960968,12.3638163 87.8518894,12.9741223 87.8675326,13.590874 C87.853143,14.2138544 87.9971774,14.8302873 88.286134,15.3823885 C88.5420835,15.8676695 88.9242991,16.2748497 89.3924378,16.5609509 C89.8338629,16.8294698 90.3408643,16.9708784 90.8575429,16.9696219 C91.382487,16.9721906 91.8986031,16.8345597 92.352548,16.5709176 C92.8210663,16.2996069 93.2042906,15.9025727 93.4588518,15.424747 C94.0037348,14.2925506 94.0037348,12.9739144 93.4588518,11.841718 L93.4588518,11.841718 Z M99.3466804,6.12830667 C99.0262076,5.81183851 98.8458274,5.38020501 98.8458274,4.92981088 C98.8458274,4.47941675 99.0262076,4.04778325 99.3466804,3.73131509 C100.063757,3.08956164 101.148688,3.08956164 101.865764,3.73131509 C102.186237,4.04778325 102.366617,4.47941675 102.366617,4.92981088 C102.366617,5.38020501 102.186237,5.81183851 101.865764,6.12830667 C101.148688,6.77006012 100.063757,6.77006012 99.3466804,6.12830667 L99.3466804,6.12830667 Z M102.020248,7.95968796 L102.020248,19.3042853 L99.1523297,19.3042853 L99.1523297,7.95968796 L102.020248,7.95968796 Z M113.982781,9.07595847 C114.813339,9.93143363 115.228618,11.1224544 115.228618,12.6490207 L115.228618,19.3042853 L112.365683,19.3042853 L112.365683,13.0377221 C112.365683,12.1390579 112.140602,11.4463722 111.690439,10.9596649 C111.209146,10.4633854 110.537017,10.199075 109.8466,10.2345874 C109.147275,10.1984934 108.465726,10.462231 107.97286,10.9596649 C107.516053,11.4463722 107.287649,12.1390579 107.287649,13.0377221 L107.287649,19.3042853 L104.422223,19.3042853 L104.422223,7.95968796 L107.287649,7.95968796 L107.287649,9.37246782 C107.67636,8.87529565 108.178828,8.47878955 108.752754,8.21633051 C109.365486,7.93303229 110.03371,7.79002387 110.708719,7.79772907 C112.059207,7.79772907 113.150561,8.22380554 113.982781,9.07595847 Z" id="shape" fill="#212429" fill-rule="nonzero"></path>
                        </g>
                        <g id="mark">
                            <rect id="frame" x="0" y="0" width="32" height="32"></rect>
                            <path d="M24.9651201,12.502335 C26.405867,11.0626033 26.5126372,8.76236405 25.2114541,7.19536009 C23.9102709,5.62835612 21.6295884,5.31057095 19.9495991,6.46218506 C18.2696098,7.61379917 17.7435012,9.85560872 18.7357927,11.6343546 L5.44216029,25.0732004 C5.2360902,25.2790304 5.12030102,25.5583399 5.12030102,25.8495974 C5.12030102,26.1408548 5.2360902,26.4201643 5.44216029,26.6259943 L5.44216029,26.6259943 C5.87345515,27.0519581 6.56821032,27.0482666 6.99495424,26.6177436 L20.2935371,13.1788977 C21.8285899,14.0135944 23.7299412,13.7382309 24.9651201,12.502335 L24.9651201,12.502335 Z" id="shape" fill="url(#linearGradient-1)" fill-rule="nonzero"></path>
                            <path d="M19.1978355,31.508797 C22.6147522,26.3933228 26.031669,21.2778485 29.4485858,16.1623743 C32.9482065,12.3622218 32.8280281,6.4782594 29.1761567,2.82417415 C25.5242852,-0.829911113 19.6403967,-0.953655244 15.838124,2.54366182 L0.491701366,12.7944121 C0.248393262,12.9551659 0.0792044423,13.2062788 0.0215967274,13.4921493 C-0.0360109874,13.7780199 0.022715483,14.0750615 0.184772913,14.3175033 L0.184772913,14.3175033 C0.523722458,14.8177146 1.203636,14.9491202 1.7045638,14.6112305 L13.1467245,6.89181491 C12.1557936,10.273937 13.0897856,13.9272422 15.582358,16.4187832 C18.0749304,18.9103242 21.728622,19.8428042 25.1103336,18.8504735 L17.3793669,30.2942844 C17.2168106,30.534933 17.1566019,30.8303378 17.2120069,31.1154108 C17.267412,31.4004838 17.4338844,31.6518322 17.6747443,31.8140753 L17.6747443,31.8140753 C17.9168516,31.9767329 18.2138866,32.0359813 18.4998722,31.9786602 C18.7858578,31.9213392 19.0371152,31.7521947 19.1978355,31.508797 Z M17.1351443,14.8571033 C15.0068315,12.7292503 14.3699558,9.52881539 15.5215158,6.74827885 C16.6730757,3.96774232 19.3862682,2.15473905 22.395832,2.15473905 C25.4053957,2.15473905 28.1185882,3.96774232 29.2701482,6.74827885 C30.4217081,9.52881539 29.7848324,12.7292503 27.6565196,14.8571033 C24.7494322,17.7584184 20.0422317,17.7584184 17.1351443,14.8571033 L17.1351443,14.8571033 Z" id="shape" fill="url(#linearGradient-2)" fill-rule="nonzero"></path>
                        </g>
                    </g>
                </g>
            </g>
        </g>
    </g>
</svg>
