<svg width="190" height="40" viewBox="0 0 190 40" xmlns="http://www.w3.org/2000/svg">
	<defs>
		<linearGradient x1="129.046%" y1="-30.081%" x2="-25.209%" y2="125.432%" id="niq9xisfva">
			<stop stop-color="#050D1C" offset="7%"/>
			<stop stop-color="#29F4B9" offset="100%"/>
		</linearGradient>
		<linearGradient x1="110.537%" y1="-10.559%" x2="24.033%" y2="75.954%" id="z65wjt1sib">
			<stop stop-color="#072A54" offset="0%"/>
			<stop stop-color="#2583F4" offset="100%"/>
		</linearGradient>
	</defs>
	<g fill="none" fill-rule="evenodd">
		<path d="M48 4h142v32H48z"/>
		<path d="M61.108 15.462a4.15 4.15 0 0 0-1.665-1.702 5.054 5.054 0 0 0-2.453-.58 5.41 5.41 0 0 0-2.76.705 4.907 4.907 0 0 0-1.91 2.021 6.461 6.461 0 0 0-.679 3.024 6.461 6.461 0 0 0 .694 3.067 4.907 4.907 0 0 0 1.925 2.018 5.71 5.71 0 0 0 2.874.705 4.99 4.99 0 0 0 3.303-1.07 5.112 5.112 0 0 0 1.686-2.987h-6.056v-2.68h9.525v3.066a8.246 8.246 0 0 1-1.512 3.404 8.535 8.535 0 0 1-2.984 2.506 8.777 8.777 0 0 1-4.097.947 9.292 9.292 0 0 1-4.6-1.147 8.372 8.372 0 0 1-3.226-3.186A9.142 9.142 0 0 1 48 18.936a9.2 9.2 0 0 1 1.172-4.649 8.32 8.32 0 0 1 3.226-3.201 9.24 9.24 0 0 1 4.575-1.147 9.139 9.139 0 0 1 5.159 1.453 7.406 7.406 0 0 1 3.023 4.07h-4.048zM71.523 9.11v18.648h-3.527V9.111h3.527zm5.636 17.983a6.47 6.47 0 0 1-2.533-2.533 7.596 7.596 0 0 1-.92-3.782 7.412 7.412 0 0 1 .948-3.78 6.572 6.572 0 0 1 2.582-2.534 7.903 7.903 0 0 1 7.308 0 6.6 6.6 0 0 1 2.585 2.533 7.443 7.443 0 0 1 .945 3.781 7.311 7.311 0 0 1-.97 3.782 6.747 6.747 0 0 1-2.621 2.533 7.636 7.636 0 0 1-3.68.892 7.36 7.36 0 0 1-3.644-.892zm5.431-2.647a3.373 3.373 0 0 0 1.35-1.401c.356-.701.53-1.48.506-2.267 0-1.326-.35-2.349-1.05-3.066a3.432 3.432 0 0 0-2.557-1.068c-.958-.019-1.879.37-2.533 1.07-.68.716-1.02 1.739-1.02 3.067 0 1.33.331 2.352.996 3.067a3.278 3.278 0 0 0 2.508 1.073 3.68 3.68 0 0 0 1.791-.475h.01zm12.99-10.246a5.775 5.775 0 0 1 2.74-.631 6.1 6.1 0 0 1 3.238.883 6.192 6.192 0 0 1 2.281 2.508 8.038 8.038 0 0 1 .847 3.766 8.197 8.197 0 0 1-.847 3.794 6.33 6.33 0 0 1-2.293 2.557 5.959 5.959 0 0 1-3.239.92 5.775 5.775 0 0 1-2.732-.613 5.311 5.311 0 0 1-1.88-1.6v1.99h-3.527V9.11h3.527v6.728A5.039 5.039 0 0 1 95.58 14.2zm4.99 4.346a3.582 3.582 0 0 0-3.189-1.877c-.633 0-1.255.169-1.8.49a3.637 3.637 0 0 0-1.362 1.427 4.907 4.907 0 0 0 0 4.385c.314.59.785 1.083 1.362 1.423a3.56 3.56 0 0 0 3.628 0 3.769 3.769 0 0 0 1.361-1.435 4.526 4.526 0 0 0 .51-2.233 4.4 4.4 0 0 0-.51-2.18zm8.924 8.547a6.44 6.44 0 0 1-2.533-2.533 7.596 7.596 0 0 1-.92-3.782 7.443 7.443 0 0 1 .945-3.78 6.578 6.578 0 0 1 2.585-2.534 7.903 7.903 0 0 1 7.308 0 6.572 6.572 0 0 1 2.582 2.533 7.412 7.412 0 0 1 .938 3.781 7.28 7.28 0 0 1-.969 3.782 6.747 6.747 0 0 1-2.622 2.533 7.636 7.636 0 0 1-3.68.892 7.36 7.36 0 0 1-3.634-.892zm5.431-2.647a3.422 3.422 0 0 0 1.35-1.401c.353-.702.526-1.481.503-2.267 0-1.326-.349-2.349-1.046-3.066a3.432 3.432 0 0 0-2.558-1.07 3.355 3.355 0 0 0-2.533 1.07c-.68.715-1.02 1.737-1.02 3.066 0 1.33.331 2.351.996 3.067a3.275 3.275 0 0 0 2.505 1.073 3.68 3.68 0 0 0 1.803-.472zm7.646-7.461a6.342 6.342 0 0 1 2.453-2.52 7.093 7.093 0 0 1 3.579-.896c1.731 0 3.163.433 4.293 1.3a6.308 6.308 0 0 1 2.279 3.64h-3.81a2.76 2.76 0 0 0-1.017-1.423 2.984 2.984 0 0 0-1.779-.518 2.92 2.92 0 0 0-2.395 1.098c-.579.73-.868 1.767-.868 3.112 0 1.346.29 2.38.868 3.1a2.916 2.916 0 0 0 2.395 1.096c1.431 0 2.363-.64 2.797-1.917h3.806a6.44 6.44 0 0 1-2.294 3.582c-1.141.89-2.572 1.334-4.294 1.334a7.093 7.093 0 0 1-3.578-.893 6.342 6.342 0 0 1-2.454-2.52 7.832 7.832 0 0 1-.88-3.794 7.823 7.823 0 0 1 .899-3.781zm25.33-2.696a4.76 4.76 0 0 1 1.939 2.04 6.992 6.992 0 0 1 .693 3.238v8.191h-3.527v-7.713c0-1.106-.278-1.958-.834-2.557a2.944 2.944 0 0 0-2.266-.893c-.861-.045-1.7.28-2.307.893-.564.599-.846 1.451-.846 2.557v7.713h-3.527V9.111h3.527v6.44a4.6 4.6 0 0 1 1.815-1.423 6.035 6.035 0 0 1 2.521-.515c.98-.022 1.95.211 2.812.677zm5.496 2.684a6.207 6.207 0 0 1 2.294-2.521 6.1 6.1 0 0 1 3.238-.883c.95-.022 1.89.196 2.736.631a5.52 5.52 0 0 1 1.876 1.589v-1.993h3.555v13.962h-3.555v-2.04a5.28 5.28 0 0 1-1.876 1.626c-.853.44-1.801.66-2.76.641a5.913 5.913 0 0 1-3.214-.92 6.354 6.354 0 0 1-2.294-2.558 8.197 8.197 0 0 1-.843-3.793 8.056 8.056 0 0 1 .843-3.741zm9.63 1.6a3.579 3.579 0 0 0-1.362-1.413 3.659 3.659 0 0 0-1.84-.491 3.579 3.579 0 0 0-1.816.478 3.659 3.659 0 0 0-1.35 1.399 4.4 4.4 0 0 0-.514 2.18 4.53 4.53 0 0 0 .515 2.205 3.75 3.75 0 0 0 1.361 1.45c.544.331 1.168.505 1.804.504a3.628 3.628 0 0 0 1.84-.491 3.57 3.57 0 0 0 1.361-1.41 5.085 5.085 0 0 0 0-4.41zm7.246-7.031a2.073 2.073 0 0 1 0-2.95 2.325 2.325 0 0 1 3.1 0 2.073 2.073 0 0 1 0 2.95c-.882.79-2.218.79-3.1 0zm3.29 2.254v13.962h-3.53V13.797h3.53zm14.723 1.373c1.023 1.053 1.534 2.52 1.534 4.398v8.191h-3.524v-7.713c0-1.106-.277-1.958-.83-2.557a2.95 2.95 0 0 0-2.27-.893c-.86-.044-1.7.28-2.306.893-.563.599-.844 1.451-.844 2.557v7.713h-3.526V13.797h3.526v1.738a4.848 4.848 0 0 1 1.804-1.423 5.584 5.584 0 0 1 2.407-.515c1.662 0 3.005.525 4.03 1.573z" fill="currentColor"/>

			<path d="M0 0h40v40H0z"/>
			<path d="M31.206 15.628a4.928 4.928 0 1 0-7.786-1.085L6.803 31.342a1.372 1.372 0 0 0 0 1.94c.539.533 1.407.528 1.94-.01l16.624-16.798a4.928 4.928 0 0 0 5.84-.846z" fill="url(#niq9xisfva)" fill-rule="nonzero"/>
			<path d="m23.997 39.386 12.814-19.183c4.374-4.75 4.224-12.105-.34-16.673-4.566-4.567-11.92-4.722-16.673-.35L.615 15.993a1.37 1.37 0 0 0-.384 1.904 1.37 1.37 0 0 0 1.9.367l14.302-9.65a12.048 12.048 0 0 0 14.955 14.95l-9.664 14.304a1.368 1.368 0 0 0 .37 1.9 1.368 1.368 0 0 0 1.903-.382zM21.42 18.571a9.3 9.3 0 1 1 13.152 0 9.309 9.309 0 0 1-13.152 0z" fill="url(#z65wjt1sib)" fill-rule="nonzero"/>

	</g>
</svg>
