<?xml version="1.0" encoding="UTF-8"?>
<svg width="24px" height="24px" viewBox="0 0 24 24" version="1.1" xmlns="http://www.w3.org/2000/svg" xmlns:xlink="http://www.w3.org/1999/xlink">
    <title>medium_white</title>
    <g id="02_assets" stroke="none" stroke-width="1" fill="none" fill-rule="evenodd">
        <g id="00_desktop" transform="translate(-396.000000, -404.000000)">
            <g id="00_vectors" transform="translate(180.000000, 316.000000)">
                <g id="00_action" transform="translate(0.000000, 64.000000)">
                    <g id="medium_white" transform="translate(216.000000, 24.000000)">
                        <rect id="frame" x="0" y="0" width="24" height="24"></rect>
                        <path d="M13.2812012,11.9994075 C13.2812012,15.1359597 10.7557851,17.6786233 7.64069642,17.6786233 C4.52560773,17.6786233 2,15.1359597 2,11.9994075 C2,8.86285523 4.5254161,6.32 7.64069642,6.32 C10.7559767,6.32 13.2812012,8.86285523 13.2812012,11.9994075 M19.4690264,11.9994075 C19.4690264,14.9517948 18.2063183,17.34613 16.6486782,17.34613 C15.091038,17.34613 13.82833,14.9517948 13.82833,11.9994075 C13.82833,9.04702011 15.0908464,6.65268496 16.6484865,6.65268496 C18.2061267,6.65268496 19.4688347,9.04625356 19.4688347,11.9994075 M22,11.9994075 C22,14.6440229 21.5559729,16.7892276 21.0080776,16.7892276 C20.4601822,16.7892276 20.0163468,14.6445978 20.0163468,11.9994075 C20.0163468,9.35421711 20.4603739,7.20958731 21.0080776,7.20958731 C21.5557813,7.20958731 22,9.35402547 22,11.9994075" id="shape" fill="currentColor" fill-rule="nonzero"></path>
                    </g>
                </g>
            </g>
        </g>
    </g>
</svg>
