<?xml version="1.0" encoding="UTF-8"?>
<svg width="24px" height="24px" viewBox="0 0 24 24" version="1.1" xmlns="http://www.w3.org/2000/svg" xmlns:xlink="http://www.w3.org/1999/xlink">
    <title>moon_f</title>
    <g id="02_assets" stroke="none" stroke-width="1" fill="none" fill-rule="evenodd">
        <g id="00_desktop" transform="translate(-252.000000, -404.000000)">
            <g id="00_vectors" transform="translate(180.000000, 316.000000)">
                <g id="00_action" transform="translate(0.000000, 64.000000)">
                    <g id="moon_f" transform="translate(72.000000, 24.000000)">
                        <rect id="frame" x="0" y="0" width="24" height="24"></rect>
                        <path d="M12.328125,20.0546875 C15.609375,20.0546875 18.4921875,18.078125 19.5546875,15.4296875 C19.6484375,15.203125 19.6796875,14.984375 19.6796875,14.859375 C19.6796875,14.5390625 19.453125,14.328125 19.1796875,14.328125 C19.0234375,14.328125 18.8671875,14.3671875 18.65625,14.4609375 C18.09375,14.671875 17.15625,14.8671875 16.234375,14.8671875 C12.1875,14.8671875 9.6171875,12.3671875 9.6171875,8.3515625 C9.6171875,7.4375 9.8203125,6.2734375 10.109375,5.6484375 C10.2109375,5.4375 10.25,5.265625 10.25,5.1328125 C10.25,4.859375 10.0546875,4.609375 9.7109375,4.609375 C9.5859375,4.609375 9.3828125,4.640625 9.171875,4.7265625 C6.2578125,5.8984375 4.3203125,8.9375 4.3203125,12.1875 C4.3203125,16.7578125 7.765625,20.0546875 12.328125,20.0546875 Z" id="shape" fill="#4579F5" fill-rule="nonzero"></path>
                    </g>
                </g>
            </g>
        </g>
    </g>
</svg>