<?xml version="1.0" encoding="UTF-8"?>
<svg width="24px" height="24px" viewBox="0 0 24 24" version="1.1" xmlns="http://www.w3.org/2000/svg" xmlns:xlink="http://www.w3.org/1999/xlink">
    <title>moon</title>
    <g id="02_assets" stroke="none" stroke-width="1" fill="none" fill-rule="evenodd">
        <g id="00_desktop" transform="translate(-204.000000, -404.000000)">
            <g id="00_vectors" transform="translate(180.000000, 316.000000)">
                <g id="00_action" transform="translate(0.000000, 64.000000)">
                    <g id="moon" transform="translate(24.000000, 24.000000)">
                        <rect id="frame" x="0" y="0" width="24" height="24"></rect>
                        <path d="M12.2851562,20.3125 C15.6601562,20.3125 18.4960938,18.46875 19.7851562,15.515625 C19.9101562,15.2421875 19.9492188,15.015625 19.9492188,14.859375 C19.9492188,14.4140625 19.6210938,14.125 19.2382812,14.125 C19.0429688,14.125 18.8554688,14.1640625 18.5898438,14.2890625 C18.0273438,14.53125 17.1289062,14.6875 16.2617188,14.6875 C12.2539062,14.6875 9.76171875,12.2890625 9.76171875,8.4140625 C9.76171875,7.328125 9.94921875,6.3359375 10.2304688,5.78125 C10.3789062,5.5078125 10.4335938,5.3125 10.4335938,5.1015625 C10.4335938,4.703125 10.1289062,4.3359375 9.66015625,4.3359375 C9.53515625,4.3359375 9.33203125,4.375 9.06640625,4.4765625 C6.08984375,5.6796875 4.05078125,8.7421875 4.05078125,12.0625 C4.05078125,16.828125 7.51953125,20.3125 12.2851562,20.3125 Z M12.3242188,18.546875 C8.56640625,18.546875 5.81640625,15.796875 5.81640625,12.03125 C5.81640625,10 6.79296875,8.0078125 8.41015625,6.8359375 C8.23828125,7.390625 8.14453125,7.9921875 8.14453125,8.65625 C8.14453125,13.3984375 11.0820312,16.28125 15.9335938,16.28125 C16.4882812,16.28125 16.9648438,16.21875 17.4179688,16.0625 C16.3242188,17.625 14.3945312,18.546875 12.3242188,18.546875 Z" id="shape" fill="currentColor" fill-rule="nonzero"></path>
                    </g>
                </g>
            </g>
        </g>
    </g>
</svg>
