<?xml version="1.0" encoding="UTF-8"?>
<svg width="32px" height="32px" viewBox="0 0 32 32" version="1.1" xmlns="http://www.w3.org/2000/svg" xmlns:xlink="http://www.w3.org/1999/xlink">
    <title>play</title>
    <g id="02_assets" stroke="none" stroke-width="1" fill="none" fill-rule="evenodd">
        <g id="00_desktop" transform="translate(-344.000000, -452.000000)">
            <g id="00_vectors" transform="translate(180.000000, 316.000000)">
                <g id="00_action" transform="translate(0.000000, 64.000000)">
                    <g id="play" transform="translate(164.000000, 72.000000)">
                        <rect id="frame" x="0" y="0" width="32" height="32"></rect>
                        <path d="M11.2758789,23.5732422 C11.6713867,23.5732422 12.0141602,23.4501953 12.4624023,23.1865234 L22.9301758,17.1220703 C23.7124023,16.6650391 24.0727539,16.2783203 24.0727539,15.6630859 C24.0727539,15.0478516 23.7124023,14.6611328 22.9301758,14.2041016 L12.4624023,8.13964844 C12.0141602,7.88476562 11.6713867,7.75292969 11.2758789,7.75292969 C10.5024414,7.75292969 9.91357422,8.34179688 9.91357422,9.30859375 L9.91357422,22.0263672 C9.91357422,22.984375 10.5024414,23.5732422 11.2758789,23.5732422 Z M12.0932617,21.0068359 C12.0405273,21.0068359 12.0141602,20.9716797 12.0141602,20.9013672 L12.0141602,10.4160156 C12.0141602,10.3544922 12.0405273,10.3193359 12.0932617,10.3193359 C12.1196289,10.3193359 12.1547852,10.3369141 12.1987305,10.3544922 L21.2163086,15.5751953 C21.2602539,15.5927734 21.2866211,15.6191406 21.2866211,15.6630859 C21.2866211,15.7070312 21.2602539,15.7333984 21.2163086,15.7597656 L12.1987305,20.9716797 C12.1547852,20.9892578 12.1196289,21.0068359 12.0932617,21.0068359 Z" id="shape" fill="#FFFFFF" fill-rule="nonzero"></path>
                    </g>
                </g>
            </g>
        </g>
    </g>
</svg>