<?xml version="1.0" encoding="UTF-8"?>
<svg width="1276px" height="1104px" viewBox="0 0 1276 1104" version="1.1" xmlns="http://www.w3.org/2000/svg"
	 xmlns:xlink="http://www.w3.org/1999/xlink">

	<rect fill="transparent" id="frame" x="0" y="0" width="1276" height="1104"></rect>
	<path id="path"
		  d="M512.574558,1058.44404 C519.195228,1058.63843 525.838202,1058.75742 532.49999,1058.80105 L536.499293,1058.81819 L536.491196,1062.81819 C529.791722,1062.80463 523.110312,1062.71539 516.45046,1062.5504 L512.457164,1062.44232 L512.574558,1058.44404 Z M564.45349,1058.43656 L564.570344,1062.43485 C557.872425,1062.6306 551.186226,1062.7518 544.515249,1062.7983 L540.514517,1062.81724 L540.504544,1058.81725 C548.466548,1058.7974 556.451544,1058.67042 564.45349,1058.43656 Z M484.672373,1057.16941 C491.469227,1057.59217 498.296621,1057.93374 505.150754,1058.19411 L508.580031,1058.31752 L508.444139,1062.31521 C501.549141,1062.08083 494.680191,1061.76485 487.841097,1061.36728 L484.424055,1061.1617 L484.672373,1057.16941 Z M592.328781,1057.19342 L592.567988,1061.18626 C585.883496,1061.58672 579.204499,1061.91376 572.534493,1062.16716 L568.533597,1062.31036 L568.399304,1058.31262 C576.363793,1058.04507 584.342296,1057.67188 592.328781,1057.19342 Z M620.267559,1055.09289 L620.627856,1059.07663 C613.962621,1059.67945 607.296732,1060.20987 600.633675,1060.6676 L596.636209,1060.93352 L596.379367,1056.94177 C604.338964,1056.42962 612.3037,1055.81316 620.267559,1055.09289 Z M456.863359,1054.96944 C463.639538,1055.62182 470.453437,1056.19146 477.301252,1056.67824 L480.727968,1056.91473 L480.460797,1060.90579 C473.568658,1060.44442 466.709745,1059.89975 459.887865,1059.27189 L456.480029,1058.95103 L456.863359,1054.96944 Z M648.022991,1052.16159 L648.502734,1056.13272 C641.864555,1056.93466 635.219663,1057.66517 628.571529,1058.32388 L624.582288,1058.71048 L624.205009,1054.72831 C632.149949,1053.97559 640.091272,1053.1198 648.022991,1052.16159 Z M429.042037,1051.79704 C435.779697,1052.68713 442.562456,1053.49298 449.386529,1054.21439 L452.801991,1054.56806 L452.39851,1058.54766 C445.526436,1057.85092 438.694989,1057.06925 431.90796,1056.20285 L428.518164,1055.76259 L429.042037,1051.79704 Z M675.730339,1048.3914 L676.329131,1052.34633 C669.722623,1053.34658 663.103366,1054.27625 656.474811,1055.13487 L652.49659,1055.64151 L651.999764,1051.67248 C659.924286,1050.68052 667.836462,1049.58657 675.730339,1048.3914 Z M401.457317,1047.63845 C408.151129,1048.77515 414.897763,1049.82587 421.69345,1050.7903 L425.095364,1051.26532 L424.551051,1055.22811 C417.703361,1054.28754 410.904042,1053.26013 404.156872,1052.14618 L400.78765,1051.582 L401.457317,1047.63845 Z M703.226368,1043.8051 L703.943764,1047.74024 C697.37795,1048.93722 690.793386,1050.06443 684.193494,1051.12132 L680.231748,1051.74702 L679.616236,1047.79466 C687.509287,1046.56545 695.3813,1045.2353 703.226368,1043.8051 Z M374.015848,1042.43348 C380.662359,1043.82953 387.369949,1045.13746 394.134851,1046.35688 L397.52206,1046.95922 L396.831004,1050.89907 C390.009674,1049.7026 383.244982,1048.41699 376.540704,1047.04263 L373.193617,1046.34806 L374.015848,1042.43348 Z M730.66434,1038.37107 L731.5012,1042.28255 C724.976887,1043.67843 718.427736,1045.00513 711.857148,1046.26206 L707.912249,1047.00785 L707.177734,1043.07586 C715.038401,1041.60745 722.869226,1040.03884 730.66434,1038.37107 Z M346.886775,1036.15863 C353.606298,1037.85983 360.398456,1039.46688 367.259257,1040.97929 L370.203791,1041.62167 L369.359701,1045.53159 C362.439263,1044.03758 355.586864,1042.44819 348.806507,1040.76393 L345.905062,1040.03629 L346.886775,1036.15863 Z M757.86954,1032.1116 L758.826616,1035.99542 C752.35209,1037.59092 745.846589,1039.1178 739.313485,1040.5754 L735.390337,1041.44163 L734.536489,1037.53383 C742.354841,1035.82553 750.134464,1034.01774 757.86954,1032.1116 Z M319.997153,1028.73063 C326.620161,1030.7181 333.324962,1032.60939 340.107608,1034.40386 L343.01921,1035.16699 L342.013978,1039.03862 C335.167042,1037.26088 328.397378,1035.38551 321.708944,1033.4131 L318.847457,1032.56184 L319.997153,1028.73063 Z M784.943915,1024.9865 L786.02307,1028.83817 C779.611171,1030.63465 773.162099,1032.3631 766.679186,1034.02279 L762.785404,1035.01034 L761.810725,1031.13091 C769.571426,1029.18109 777.284404,1027.13252 784.943915,1024.9865 Z M293.374004,1020.06663 C299.896179,1022.36083 306.510229,1024.55617 313.21223,1026.65194 L316.089889,1027.54403 L314.914871,1031.36755 C308.143371,1029.28659 301.459287,1027.1051 294.866559,1024.8238 L292.046709,1023.83999 L293.374004,1020.06663 Z M811.695589,1017.02566 L812.898491,1020.8405 C806.368111,1022.89967 799.791636,1024.88725 793.172655,1026.80236 L789.859638,1027.75387 L788.763024,1023.90712 C796.466095,1021.71116 804.11218,1019.41687 811.695589,1017.02566 Z M267.286085,1010.16072 C273.687852,1012.77837 280.192219,1015.29426 286.795288,1017.7076 L289.631207,1018.7356 L288.277945,1022.49973 C281.599801,1020.09884 275.019881,1017.5943 268.542104,1014.98691 L265.772178,1013.86317 L267.286085,1010.16072 Z M838.194228,1008.18485 L839.523545,1011.9575 C833.070307,1014.23134 826.564058,1016.43396 820.008342,1018.56439 L816.726378,1019.62359 L815.505554,1015.81445 C823.136781,1013.36865 830.701544,1010.82494 838.194228,1008.18485 Z M241.77247,998.930728 C248.118014,1001.93199 254.580811,1004.82544 261.156828,1007.61012 L263.628134,1008.64927 L262.086962,1012.34045 C255.432414,1009.56198 248.890745,1006.67349 242.466013,1003.67589 L240.062228,1002.54667 L241.77247,998.930728 Z M864.393659,998.444478 L865.852556,1002.16894 C859.482899,1004.66398 853.053021,1007.08801 846.566423,1009.43998 L843.318413,1010.60996 L841.97072,1006.84383 C849.523215,1004.14121 856.999377,1001.34087 864.393659,998.444478 Z M216.890714,986.279513 C223.04104,989.63721 229.320285,992.884436 235.724494,996.020142 L238.131923,997.190802 L236.392441,1000.79277 C229.904214,997.659448 223.540732,994.413169 217.305985,991.054956 L214.973997,989.790381 L216.890714,986.279513 Z M890.200005,987.800671 L891.79191,991.470254 C885.519068,994.19148 879.178565,996.841871 872.773853,999.420314 L869.566163,1000.70353 L868.088571,996.986449 C875.547389,994.021468 882.919691,990.95895 890.200005,987.800671 Z M915.61759,976.204804 L917.346695,979.811769 C911.184947,982.765585 904.947808,985.648698 898.63868,988.459927 L895.478133,989.859545 L893.866839,986.198434 C901.215978,982.964 908.468023,979.63216 915.61759,976.204804 Z M192.850323,972.176372 C198.780205,975.911948 204.851516,979.53406 211.060377,983.041567 L213.39514,984.351508 L211.448122,987.845663 C205.149605,984.335995 198.988584,980.710097 192.968986,976.969078 L190.718274,975.560802 L192.850323,972.176372 Z M940.570787,963.633403 L942.441642,967.168923 C936.403775,970.363919 930.282388,973.488233 924.080831,976.540615 L920.973386,978.060806 L919.224252,974.463511 C926.449736,970.95022 933.567014,967.339517 940.570787,963.633403 Z M169.793914,956.558549 C175.462377,960.686611 181.285063,964.698353 187.258188,968.592553 L189.505155,970.047365 L187.341812,973.411879 C181.273676,969.510137 175.356143,965.489031 169.593066,961.349754 L167.43916,959.791989 L169.793914,956.558549 Z M964.959232,950.072993 L966.976546,953.52704 C960.956875,957.042791 954.841311,960.484859 948.633355,963.851842 L945.967156,965.290233 L944.075764,961.765657 C951.158471,957.964866 958.121362,954.066607 964.959232,950.072993 Z M147.872111,939.361663 C153.290767,943.942441 158.880079,948.401757 164.636264,952.738282 L166.561168,954.179241 L164.173842,957.388708 C158.32104,953.035168 152.635616,948.5568 147.121444,943.954919 L145.289734,942.416386 L147.872111,939.361663 Z M988.749412,935.466603 L990.91839,938.827486 C985.065318,942.604822 979.10715,946.308474 973.047319,949.936973 L970.444034,951.487439 L968.40532,948.045979 C975.320256,943.949585 982.10332,939.755722 988.749412,935.466603 Z M127.296648,920.57179 C132.351966,925.564273 137.590492,930.433267 143.008598,935.177398 L144.821279,936.754148 L142.205953,939.780708 C136.687932,935.012449 131.350348,930.117141 126.19694,925.096162 L124.485963,923.417849 L127.296648,920.57179 Z M1011.85334,919.77647 L1014.17925,923.030713 C1008.51175,927.081471 1002.72936,931.058424 996.835434,934.960035 L994.302649,936.627536 L992.111458,933.281093 C998.838427,928.876395 1005.42072,924.374082 1011.85334,919.77647 Z M1034.1365,902.991419 L1036.6242,906.123733 C1031.16917,910.45613 1025.58904,914.714629 1019.8871,918.897633 L1017.43597,920.685723 L1015.08724,917.447903 C1021.59662,912.725972 1027.948,907.906341 1034.1365,902.991419 Z M108.365231,900.300723 C113.005027,905.697427 117.839409,910.969458 122.864939,916.115425 L124.54719,917.826076 L121.704921,920.640593 C116.577826,915.462944 111.643137,910.15697 106.904419,904.724095 L105.33211,902.908438 L108.365231,900.300723 Z M1055.47881,885.089126 L1058.13243,888.082165 C1052.83633,892.77768 1047.40018,897.396881 1041.82734,901.938032 L1039.73112,903.637301 L1037.22015,900.523614 C1043.47978,895.47567 1049.56759,890.330009 1055.47881,885.089126 Z M91.1059497,878.40514 C95.32135,884.255104 99.7455236,889.977523 104.375145,895.570977 L105.770191,897.245143 L102.705707,899.815927 C97.9779085,894.180191 93.4573102,888.413223 89.147372,882.516514 L87.8607138,880.74361 L91.1059497,878.40514 Z M1075.80617,865.996295 L1078.62921,868.830098 C1073.61297,873.827297 1068.44534,878.748225 1063.12964,883.591096 L1061.12932,885.40351 L1058.45164,882.431968 C1064.4241,877.050149 1070.21048,871.570735 1075.80617,865.996295 Z M75.8185302,855.092918 C79.5094602,861.304848 83.4164024,867.390532 87.5362915,873.348598 L88.7786436,875.132188 L85.5042273,877.429621 C81.2892165,871.422177 77.2893034,865.285012 73.507678,859.019604 L72.3797423,857.136135 L75.8185302,855.092918 Z M1094.96648,845.69436 L1097.96063,848.346728 C1093.2633,853.649356 1088.40314,858.875952 1083.38332,864.024686 L1081.49341,865.951808 L1078.64574,863.142756 C1084.28796,857.422968 1089.72969,851.605963 1094.96648,845.69436 Z M62.6869539,830.565882 C65.8132335,837.088311 69.1591458,843.487545 72.7219164,849.762297 L73.7972505,851.640987 L70.3326128,853.640058 C66.6802956,847.31014 63.2472905,840.853933 60.0364715,834.272857 L59.0798943,832.29479 L62.6869539,830.565882 Z M1112.65471,824.198423 L1115.83362,826.626287 L1111.68165,832.061796 C1108.60426,835.90676 1105.44404,839.715242 1102.20201,843.486621 L1100.57419,845.369216 L1097.55599,842.744238 C1100.79474,839.020338 1103.95236,835.259884 1107.01021,831.486049 L1108.53074,829.598123 L1112.65471,824.198423 Z M1124.18503,815.136648 L1124.16949,815.284944 L1120.97443,838.008371 L1117.0134,837.451424 L1119.145,822.288 L1118.26118,823.446744 L1115.08188,821.01938 L1115.965,819.861 L1101.90087,825.913133 L1100.31991,822.238818 L1121.3985,813.169313 C1122.78489,812.572787 1124.28641,813.665798 1124.18503,815.136648 Z M51.7988455,805.000699 C54.3492804,811.806544 57.1213548,818.492716 60.1125635,825.058017 L61.0164976,827.023979 L57.3880518,828.707541 C54.3143261,822.082988 51.4623729,815.336129 48.8347616,808.468316 L48.053211,806.404345 L51.7988455,805.000699 Z M43.1692371,778.529303 C45.1281012,785.546287 47.3063561,792.448941 49.7017866,799.236178 L50.4269288,801.268885 L46.6640448,802.625611 C44.1948113,795.777182 41.9454085,788.812329 39.9180773,781.732289 L39.3165423,779.604823 L43.1692371,778.529303 Z M36.8132057,751.457894 C38.1746586,758.548385 39.745709,765.533196 41.5244854,772.411381 L42.1251019,774.700159 L38.2597487,775.729259 C36.3943592,768.722753 34.7434169,761.606853 33.3088432,754.382664 L32.884964,752.21216 L36.8132057,751.457894 Z M32.6390195,723.888029 C33.4448401,731.073639 34.4529458,738.160351 35.6617207,745.147329 L36.0720756,747.472626 L32.1353111,748.181065 C30.8678065,741.137593 29.8031976,733.994139 28.9430706,726.751642 L28.6639371,724.333809 L32.6390195,723.888029 Z M30.5567436,696.180769 C30.8416135,703.432 31.3209335,710.590848 31.9933078,717.656571 L32.2245808,720.008362 L28.2450381,720.412392 C27.5222427,713.293131 26.9944548,706.08076 26.6630279,698.776096 L26.5598268,696.33779 L30.5567436,696.180769 Z M26.411722,668.175565 L30.4101748,668.286809 C30.208001,675.553513 30.1908558,682.734636 30.3575459,689.82953 L30.4199163,692.1913 L26.4216357,692.308568 C26.1888049,684.370125 26.1849758,676.325471 26.411722,668.175565 Z M28.1371242,640.114993 L32.1174444,640.511289 C31.630505,645.402004 31.2421423,650.393777 30.9528367,655.487555 C30.8270964,657.701452 30.7181306,659.907698 30.6259083,662.106275 L30.539266,664.302296 L26.5419948,664.154569 C26.6510559,661.203526 26.7901252,658.238901 26.9592727,655.260737 C27.2517664,650.110826 27.6445242,645.062561 28.1371242,640.114993 Z M32.186662,612.148184 L36.1136236,612.909086 C34.7589106,619.90066 33.6401197,627.131871 32.759006,634.606396 L32.5436802,636.480098 L28.5685228,636.034988 C29.4918425,627.789075 30.6985282,619.828333 32.186662,612.148184 Z M39.0254375,584.837378 L42.8434512,586.030177 C40.7067463,592.869521 38.8407206,599.980557 37.2474317,607.368088 L36.8845921,609.077813 L32.9690265,608.260289 C34.6658022,600.133512 36.6853392,592.32776 39.0254375,584.837378 Z M49.1793824,558.472698 L52.8052014,560.16191 C49.7542399,566.710665 47.0098903,573.562224 44.5743702,580.722776 L44.0572008,582.261911 L40.2608608,581.001831 C42.8711426,573.137635 45.8448101,565.630211 49.1793824,558.472698 Z M63.0213448,533.781046 L66.3482679,536.001762 C62.3081628,542.054366 58.6032443,548.430703 55.2355083,555.138258 L54.5190122,556.580664 L50.92908,554.816468 C54.5628891,547.422091 58.5945385,540.412978 63.0213448,533.781046 Z M80.5755141,511.612633 L83.4976729,514.344114 C78.4509371,519.74315 73.7589347,525.475082 69.4230186,531.548309 L68.5605836,532.767508 L65.2849875,530.471757 C69.9668613,523.79162 75.0645557,517.508298 80.5755141,511.612633 Z M101.534954,492.556132 L103.981756,495.720489 C98.0880997,500.27769 92.5448214,505.152772 87.3523413,510.354001 L86.2450365,511.473545 L83.3880375,508.673981 C89.0268597,502.919474 95.0764182,497.550119 101.534954,492.556132 Z M125.132725,476.972284 L127.093379,480.458806 C120.527895,484.150922 114.295007,488.133907 108.394193,492.415367 L107.134815,493.337395 L104.758058,490.120094 C111.164236,485.387578 117.955897,481.008191 125.132725,476.972284 Z M849.744482,488.500759 C857.001133,488.661055 864.112395,488.741337 871.086152,488.740009 L873.694881,488.735682 L873.707421,492.735662 C866.737496,492.757513 859.631552,492.697207 852.381631,492.55637 L849.656146,492.499784 L849.744482,488.500759 Z M901.651547,488.174019 L901.804012,492.171112 C894.844468,492.436577 887.742442,492.608166 880.491505,492.687918 L877.76541,492.713524 L877.734225,488.713646 C885.893745,488.650029 893.863175,488.471099 901.651547,488.174019 Z M821.852861,487.528437 C829.105396,487.868404 836.214286,488.137768 843.189432,488.335365 L845.798862,488.406097 L845.695388,492.404759 C838.728225,492.224467 831.628993,491.972035 824.38772,491.648645 L821.665564,491.52405 L821.852861,487.528437 Z M929.515044,486.541414 L929.835703,490.52854 C922.885744,491.087481 915.783535,491.538293 908.523813,491.883449 L905.794023,492.007935 L905.619495,488.011744 C913.783109,487.655211 921.74584,487.166241 929.515044,486.541414 Z M793.910494,485.921266 C801.040825,486.402673 808.030262,486.823385 814.890913,487.182771 L817.823343,487.333037 L817.623215,491.328027 C810.778497,490.985143 803.807095,490.580702 796.696837,490.115346 L793.641047,489.912181 L793.910494,485.921266 Z M957.274522,483.618096 L957.797928,487.583704 C950.811495,488.505817 943.656891,489.300466 936.329708,489.970682 L933.880916,490.189482 L933.533262,486.204619 C941.659489,485.495657 949.571274,484.634819 957.274522,483.618096 Z M765.958495,483.787994 C773.20971,484.40119 780.308508,484.958024 787.271776,485.458482 L789.876682,485.643511 L789.596627,489.633695 C782.649731,489.146121 775.569757,488.602081 768.339756,488.001595 L765.62144,487.773768 L765.958495,483.787994 Z M738.212749,481.243381 C745.453746,481.955693 752.529804,482.616716 759.464113,483.227356 L762.057879,483.453985 L761.712436,487.439041 C754.799208,486.839771 747.747435,486.190182 740.533868,485.489372 L737.821151,485.224166 L738.212749,481.243381 Z M984.795608,479.14465 L985.563054,483.070338 C978.569471,484.437537 971.387804,485.653886 964.014425,486.723069 L961.796656,487.039413 L961.240943,483.078203 C969.324153,481.944219 977.174145,480.634595 984.795608,479.14465 Z M710.391215,478.346529 C717.663203,479.142309 724.745724,479.889563 731.673071,480.590691 L734.263619,480.851456 L733.865189,484.831563 C726.964934,484.140812 719.914077,483.404216 712.678258,482.619374 L709.956089,482.322792 L710.391215,478.346529 Z M1011.90346,472.815374 L1012.9632,476.672439 C1006.01616,478.581157 998.857164,480.311324 991.483364,481.867373 L989.467,482.287436 L988.661278,478.369425 C996.664125,476.723673 1004.41032,474.874136 1011.90346,472.815374 Z M682.55656,475.176348 C689.943146,476.047579 697.091632,476.869252 704.059184,477.646722 L706.375079,477.904248 L705.934527,481.879914 C698.997803,481.11124 691.886775,480.29896 684.544197,479.437714 L682.088016,479.148811 L682.55656,475.176348 Z M654.854013,471.818836 C662.45246,472.761572 669.711279,473.646577 676.743434,474.486368 L678.655759,474.71429 L678.183296,478.68629 C671.185027,477.853856 663.970647,476.977363 656.427091,476.044288 L654.361511,475.7884 L654.854013,471.818836 Z M150.557225,464.74755 L152.069898,468.450498 C145.082363,471.304941 138.396304,474.412852 132.010284,477.780822 L130.541913,478.562666 L128.647994,475.039447 C135.60141,471.301613 142.904038,467.873916 150.557225,464.74755 Z M1038.37693,464.270999 L1039.78275,468.015817 C1033.02779,470.551667 1026.03777,472.880957 1018.8108,475.008802 L1016.83393,475.584133 L1015.72815,471.740013 C1023.55944,469.487316 1031.10819,466.999722 1038.37693,464.270999 Z M627.066667,468.311998 C635.042398,469.332643 642.408059,470.265589 649.468435,471.148113 L650.87653,471.323956 L650.381316,475.293183 C643.356104,474.416695 636.046241,473.492301 628.146777,472.482708 L626.558932,472.279643 L627.066667,468.311998 Z M599.314935,464.73177 C608.569095,465.931952 615.589539,466.839254 622.393878,467.712974 L623.097087,467.80325 L622.587875,471.770706 C615.794047,470.898737 608.854134,470.002184 599.75008,468.821692 L598.800479,468.698549 L599.314935,464.73177 Z M571.463612,461.120677 C573.030846,461.323258 574.414716,461.50224 575.846855,461.687638 L576.354697,461.753388 C580.014003,462.227207 584.15648,462.764671 592.530643,463.851515 C593.119095,463.927886 593.455353,463.971527 593.755589,464.010491 L594.051823,464.048935 C594.314532,464.083028 594.604831,464.1207 595.067536,464.180744 L595.276815,464.207902 L594.76208,468.174645 C593.388904,467.99645 593.388904,467.99645 592.015819,467.818246 C583.555642,466.720238 579.414858,466.182998 575.727888,465.70562 L575.249235,465.643651 C575.09033,465.623081 574.931965,465.602582 574.773823,465.582115 L574.299746,465.520763 C574.141731,465.500316 573.98362,465.479859 573.825097,465.45935 L573.319786,465.393981 C572.7489,465.320137 572.168444,465.245078 571.563921,465.166926 L570.950838,465.087673 L571.463612,461.120677 Z M177.200202,455.479733 L178.325561,459.318165 C171.093029,461.438613 164.128763,463.774996 157.430417,466.332903 L155.761369,466.976998 L154.30809,463.25034 C161.626243,460.396491 169.255976,457.808836 177.200202,455.479733 Z M1063.81818,453.15299 L1065.62249,456.722927 C1059.11128,460.013819 1052.33587,463.064063 1045.29529,465.879573 L1043.52962,466.578563 L1042.07014,462.854328 C1049.62968,459.891847 1056.87852,456.660428 1063.81818,453.15299 Z M543.683773,457.560969 C550.662467,458.444843 557.959098,459.378606 566.169276,460.437163 L567.473299,460.605352 L566.961459,464.572469 C558.656197,463.50092 551.295935,462.558119 544.285299,461.669189 L543.181175,461.529268 L543.683773,457.560969 Z M515.897495,454.103828 C522.940634,454.961701 530.235583,455.866273 537.955033,456.83769 L539.744058,457.063058 L539.243605,461.031628 C531.462803,460.050437 524.119951,459.13765 517.042487,458.273138 L515.413859,458.074482 L515.897495,454.103828 Z M204.517858,448.731264 L205.320851,452.649835 C197.975817,454.154979 190.868046,455.841909 183.994301,457.715294 L182.125443,458.230844 L181.049756,454.378195 C188.593804,452.271844 196.415066,450.391688 204.517858,448.731264 Z M488.086906,450.811163 C495.069174,451.611208 502.249366,452.456134 509.705531,453.353896 L511.950738,453.624818 L511.470535,457.595889 C503.965679,456.688361 496.744793,455.834467 489.729917,455.02626 L487.631556,454.785161 L488.086906,450.811163 Z M1087.76131,439.122535 L1090.00344,442.435064 C1083.88338,446.577509 1077.47031,450.445152 1070.76429,454.044562 L1069.21155,454.870436 L1067.34652,451.331839 C1074.48869,447.567533 1081.29343,443.500404 1087.76131,439.122535 Z M460.284674,447.755058 C467.240411,448.484171 474.36462,449.259912 481.701761,450.08588 L484.155421,450.363068 L483.704862,454.337611 C476.329653,453.501548 469.172528,452.716099 462.189107,451.977669 L459.867672,451.733263 L460.284674,447.755058 Z M232.216925,444.050309 L232.755547,448.013879 C225.380081,449.016154 218.215486,450.171077 211.257639,451.482516 L209.176483,451.880647 L208.414154,447.953962 C216.097964,446.462223 224.030333,445.162811 232.216925,444.050309 Z M432.310734,444.992598 C439.217066,445.629255 446.27368,446.315948 453.508831,447.054162 L456.230437,447.33341 L455.819928,451.312289 C448.55224,450.562466 441.466861,449.864314 434.535604,449.216347 L431.943553,448.975709 L432.310734,444.992598 Z M404.403137,442.632082 C411.328163,443.161311 418.395808,443.746474 425.626083,444.387882 L428.345099,444.631048 L427.985971,448.614893 C420.730484,447.960839 413.640404,447.363001 406.695787,446.82106 L404.098335,446.620452 L404.403137,442.632082 Z M260.228756,441.045186 L260.550682,445.032211 C253.207795,445.625099 246.053637,446.345875 239.083184,447.197694 L236.766496,447.486491 L236.262033,443.518429 C244.023527,442.531703 252.010079,441.708789 260.228756,441.045186 Z M376.416774,440.756073 C383.35582,441.151547 390.434637,441.610288 397.668146,442.131817 L400.387992,442.330332 L400.093312,446.319463 C392.840386,445.783685 385.744333,445.310514 378.790306,444.90042 L376.189174,444.749593 L376.416774,440.756073 Z M288.222539,439.427009 L288.368116,443.424359 C281.006371,443.692462 273.819926,444.070614 266.802583,444.561442 L264.469723,444.729228 L264.174877,440.740109 C271.980885,440.163146 279.993884,439.726684 288.222539,439.427009 Z M348.418362,439.481218 C355.374952,439.712893 362.47258,440.016851 369.722836,440.392001 L372.448859,440.536018 L372.233529,444.530218 C364.968837,444.138574 357.858593,443.817793 350.891287,443.568946 L348.285224,443.479002 L348.418362,439.481218 Z M320.312406,438.938193 C327.269209,438.968777 334.37117,439.082207 341.627481,439.276876 L344.35585,439.353682 L344.238038,443.351947 C336.972165,443.137852 329.862227,443.00449 322.899121,442.953438 L320.294821,442.938154 L320.312406,438.938193 Z M316.321472,438.929752 L316.322224,442.929752 C309.048181,442.931119 301.93582,443.025328 294.977791,443.214431 L292.375749,443.289797 L292.25276,439.291688 C300.078761,439.050946 308.098128,438.931297 316.321472,438.929752 Z M1109.55847,422.035024 L1112.24568,424.997946 C1106.70048,430.027138 1100.84014,434.754018 1094.66569,439.185407 L1093.33779,440.13047 L1091.03137,436.862377 C1097.56294,432.252798 1103.73876,427.313186 1109.55847,422.035024 Z M1128.65263,401.944957 L1131.74902,404.477228 C1126.95417,410.340236 1121.835,415.886746 1116.3932,421.123334 L1115.22217,422.240719 L1112.47306,419.33514 C1118.22969,413.888512 1123.62329,408.094689 1128.65263,401.944957 Z M1144.55754,379.300664 L1147.98723,381.359101 C1144.05869,387.904705 1139.81329,394.136789 1135.25295,400.061292 L1134.27091,401.326123 L1131.1217,398.859852 C1135.95391,392.689557 1140.43317,386.172548 1144.55754,379.300664 Z M1157.18606,354.611366 L1160.85828,356.197174 C1157.80864,363.259173 1154.46093,370.022586 1150.81702,376.492602 L1150.03165,377.874545 L1146.56171,375.884702 C1150.43573,369.129066 1153.97795,362.040324 1157.18606,354.611366 Z M1166.65173,328.535356 L1170.48268,329.685949 C1168.27247,337.044927 1165.79343,344.131464 1163.04722,350.949892 L1162.40874,352.518618 L1158.70939,350.997167 C1161.66069,343.821196 1164.30891,336.335876 1166.65173,328.535356 Z M1173.33361,301.489227 L1177.25123,302.296846 C1176.83327,304.324299 1176.40184,306.363051 1175.95689,308.413163 C1174.80871,313.703004 1173.54043,318.86079 1172.15076,323.895417 L1171.62394,325.777646 L1167.77589,324.685636 C1169.35039,319.137366 1170.77382,313.434639 1172.0479,307.564739 C1172.4899,305.5282 1172.91847,303.503036 1173.33361,301.489227 Z M1178.26535,274.07825 L1182.21974,274.680573 C1181.16051,281.634646 1179.92641,288.735274 1178.51629,295.983569 L1178.03973,298.405138 L1174.11668,297.624286 C1175.7153,289.592736 1177.09763,281.744544 1178.26535,274.07825 Z M1181.62319,246.386097 L1185.60766,246.738184 C1184.98292,253.808195 1184.15635,261.047311 1183.12648,268.456963 L1182.81142,270.684977 L1178.85215,270.115568 C1180.01949,261.998732 1180.94248,254.08952 1181.62319,246.386097 Z M1183.04274,218.585046 L1187.04249,218.630064 C1186.96199,225.781869 1186.64744,233.129678 1186.09698,240.675346 L1185.94101,242.738162 L1181.9532,242.426063 C1182.59364,234.24289 1182.95595,226.296671 1183.04274,218.585046 Z M1186.07084,190.463541 C1186.67218,197.644183 1187.00111,205.052829 1187.05526,212.691878 L1187.06307,214.606441 L1183.06307,214.610784 C1183.05485,207.033494 1182.7754,199.687928 1182.22739,192.571645 L1182.0848,190.79735 L1186.07084,190.463541 Z M1182.13179,162.524785 C1183.58737,169.683229 1184.72308,177.109392 1185.5358,184.806384 L1185.70501,186.459886 L1181.7245,186.854331 C1180.97028,179.243179 1179.89882,171.903834 1178.51363,164.832915 L1178.21201,163.321825 L1182.13179,162.524785 Z M1174.59022,135.254719 C1177.06463,142.17661 1179.17538,149.403295 1180.91848,156.9386 L1181.28637,158.558033 L1177.38231,159.428822 C1175.72496,151.99832 1173.70848,144.876102 1171.33721,138.05763 L1170.82365,136.601176 L1174.59022,135.254719 Z M1162.90454,109.437966 C1166.5489,115.949363 1169.78857,122.801347 1172.61844,129.998557 L1173.17895,131.442603 L1169.44372,132.873729 C1166.73271,125.798 1163.6231,119.064251 1160.11993,112.666604 L1159.41405,111.391554 L1162.90454,109.437966 Z M1146.879,86.0357715 C1151.72514,91.8862011 1156.1446,98.0981763 1160.13124,104.67722 L1160.87366,105.915094 L1157.434,107.956844 C1153.61653,101.525703 1149.38135,95.45151 1144.73361,89.7275442 L1143.79856,88.5874188 L1146.879,86.0357715 Z M276.400295,99.9507871 C283.029268,100.118744 289.676618,100.213502 296.342348,100.235058 L300.343992,100.239207 L300.348622,104.239204 C293.646154,104.246963 286.962028,104.181196 280.296247,104.041903 L276.29898,103.949504 L276.400295,99.9507871 Z M328.277945,99.7826736 L328.403539,103.780701 C321.702209,103.991215 315.018935,104.129337 308.353718,104.195063 L304.356754,104.225812 L304.334664,100.225873 C312.289689,100.181941 320.270782,100.034209 328.277945,99.7826736 Z M248.5048,98.805762 C255.128068,99.182497 261.769964,99.485005 268.430492,99.713285 L272.429044,99.8413457 L272.309967,103.839573 C265.611991,103.640091 258.932623,103.366042 252.271866,103.017425 L248.277645,102.799307 L248.5048,98.805762 Z M356.202051,98.4911067 L356.445522,102.48369 C349.750628,102.89195 343.073482,103.229028 336.414088,103.494922 L332.420581,103.645917 L332.277911,99.6484623 C340.226981,99.3647592 348.201693,98.9789748 356.202051,98.4911067 Z M220.627035,96.7719217 C227.238168,97.3613637 233.86815,97.8756657 240.516986,98.314827 L244.50855,98.5693068 L244.26317,102.561773 C237.576286,102.150793 230.908248,101.664321 224.25906,101.102356 L220.271808,100.756117 L220.627035,96.7719217 Z M384.052036,96.3897485 L384.40987,100.373711 C377.728749,100.973798 371.065043,101.50403 364.418752,101.964404 L360.433068,102.232246 L360.173092,98.2407032 C368.107564,97.7239165 376.067212,97.1069325 384.052036,96.3897485 Z M192.84656,93.8392452 C199.436236,94.6438823 206.044936,95.3726551 212.672663,96.0255632 L216.651582,96.4082043 L216.277922,100.390713 C209.611691,99.7652526 202.964497,99.0635653 196.336344,98.2856509 L192.361738,97.809755 L192.84656,93.8392452 Z M411.860863,93.4988993 L412.329564,97.4713442 C405.666073,98.2575571 399.019654,98.9752793 392.390308,99.6245092 L388.414749,100.005828 L388.040807,96.0233455 C395.956133,95.280122 403.896151,94.4386408 411.860863,93.4988993 Z M165.166202,89.9956992 C171.728292,91.0176827 178.309549,91.9631996 184.909975,92.8322499 L188.872531,93.344504 L188.36903,97.3126884 C181.729777,96.4702711 175.109721,95.5510178 168.508868,94.5549281 L164.55066,93.948054 L165.166202,89.9956992 Z M439.564877,89.8483605 L440.140629,93.8067074 C433.500125,94.7725859 426.876333,95.6714037 420.269256,96.5031593 L416.307015,96.9941652 L415.822795,93.023582 C423.712638,92.0614002 431.626665,91.002994 439.564877,89.8483605 Z M137.662488,85.2431807 C144.188154,86.4830006 150.733079,87.6459454 157.297266,88.7320151 L161.23809,89.374432 L160.603892,93.3238361 C154.000714,92.2634924 147.416846,91.1259 140.852293,89.9110591 L136.915878,89.1728848 L137.662488,85.2431807 Z M467.149282,85.3384669 L467.858075,89.2751674 C459.793931,90.7270976 452.345246,91.9735919 445.428516,93.0230051 L444.137843,93.2174625 L443.546048,89.2614825 C450.783282,88.1788275 458.618136,86.8744796 467.149282,85.3384669 Z M494.614446,80.0898262 L495.399503,84.0120304 C487.422627,85.6086584 480.026559,87.0382287 473.086649,88.3210042 L471.790731,88.5598093 L471.068008,84.6256421 C478.35953,83.286159 486.158761,81.782291 494.614446,80.0898262 Z M110.287692,79.565868 C116.775275,81.0251715 123.282202,82.4072184 129.808478,83.7120089 L133.726566,84.4856124 L132.961128,88.4116924 C126.208231,87.0951308 119.475876,85.6964381 112.764066,84.2156147 L109.409873,83.4683588 L110.287692,79.565868 Z M1126.90248,65.9366179 C1132.77089,70.876615 1138.22532,76.1697716 1143.2595,81.8222471 L1144.26073,82.957535 L1141.24787,85.5886332 C1136.39679,80.0336833 1131.13442,74.8279684 1125.46566,69.9647986 L1124.32649,68.9967299 L1126.90248,65.9366179 Z M521.993963,74.4459791 L522.819505,78.3598621 C514.813369,80.0485696 507.486932,81.5677219 500.603902,82.9633959 L499.318473,83.223649 L498.525887,79.3029594 C505.769406,77.8386476 513.497812,76.2380436 521.993963,74.4459791 Z M83.140666,72.9791574 C89.7599122,74.7032927 96.3996271,76.3456413 103.059815,77.9062039 L106.391614,78.6796698 L105.495086,82.5779048 C98.7960437,81.0372377 92.117566,79.4143901 85.4596563,77.709363 L82.1324155,76.8500011 L83.140666,72.9791574 Z M549.428677,68.5806007 L550.272687,72.4905428 C541.728106,74.3349974 534.458033,75.8935929 527.658289,77.3361875 L526.773967,77.5237082 L525.944609,73.6106321 C532.993424,72.1166677 540.517101,70.5042758 549.428677,68.5806007 Z M56.2211899,65.4829988 C62.5986424,67.3746256 68.9954104,69.1890345 75.411497,70.9262267 L79.2634673,71.9592761 L78.2365881,75.8252196 C71.5975079,74.0617346 64.9789776,72.2161691 58.3810006,70.2885241 L55.0837249,69.3178617 L56.2211899,65.4829988 Z M576.751452,62.6633927 L577.59854,66.572669 C576.578102,66.7937846 574.596111,67.2234078 572.541606,67.6687785 L571.659257,67.8600539 C568.720572,68.4971055 565.893094,69.1100966 565.768771,69.1370446 C561.341647,70.0966574 557.940189,70.8333215 554.690442,71.536043 L554.150072,71.6528813 L553.304802,67.7432114 C556.719328,67.0049917 560.248977,66.2406127 564.921418,65.2278256 C565.049779,65.2000023 568.064636,64.5463877 571.106046,63.8870705 L571.694269,63.7595561 C573.748836,63.3141718 575.730916,62.8845293 576.751452,62.6633927 Z M29.5884301,57.0971135 C35.9059133,59.2026447 42.2426665,61.2311008 48.5986929,63.1824833 L52.4146215,64.344064 L51.2589201,68.1734705 C44.6820525,66.188595 38.1257051,64.121799 31.589881,61.9730842 L28.3236793,60.8919001 L29.5884301,57.0971135 Z M1103.82003,49.5614969 C1110.46687,53.5290635 1116.73339,57.8222153 1122.61405,62.4472765 L1123.78504,63.376716 L1121.2843,66.4986244 C1115.59091,61.9380526 1109.51636,57.6993633 1103.06512,53.7765044 L1101.76985,52.9961419 L1103.82003,49.5614969 Z M604.149704,56.7517984 L604.988156,60.6629361 C598.137075,62.1316398 591.115265,63.6460062 582.547293,65.5008066 L581.511627,65.7250356 L580.665114,61.8156348 C589.709198,59.857294 597.021501,58.2799102 604.149704,56.7517984 Z M631.548537,50.9398158 L632.368638,54.8548424 C625.407915,56.3129427 618.244892,57.8294555 610.654022,59.4505701 L608.894585,59.8265513 L608.05819,55.9149731 C616.310471,54.1504263 624.046623,52.5112823 631.548537,50.9398158 Z M658.959224,45.2913573 L659.752349,49.2119379 C652.890595,50.6000573 645.885267,52.0384626 638.656507,53.5421989 L636.238536,54.0458847 L635.42174,50.1301671 C643.517595,48.4414188 651.32687,46.8353675 658.959224,45.2913573 Z M1078.59976,36.8193765 C1085.7209,39.8456473 1092.50963,43.1562982 1098.96167,46.7571306 L1100.33909,47.5331812 L1098.36152,51.0101372 C1092.08454,47.4400162 1085.47222,44.1522583 1078.52834,41.1416338 L1077.03529,40.5007399 L1078.59976,36.8193765 Z M686.456241,39.8521963 L687.214149,43.7797371 C680.486944,45.0779024 673.64891,46.4230547 666.662678,47.8213413 L663.659397,48.4238781 L662.870788,44.5023864 C670.914294,42.8848447 678.75749,41.3378433 686.456241,39.8521963 Z M713.962244,34.6964295 L714.676813,38.632086 C707.928442,39.8573384 701.082722,41.1312379 694.117874,42.456655 L691.125582,43.0278534 L690.373348,39.099222 C698.384873,37.5652172 706.23698,36.0990495 713.962244,34.6964295 Z M1052.07139,27.3038069 C1059.44839,29.5121232 1066.54063,31.9630898 1073.34503,34.6617052 L1074.91016,35.288861 L1073.40915,38.9965497 C1066.75878,36.3042245 1059.82019,33.8542278 1052.59637,31.6420727 L1050.92428,31.1357953 L1052.07139,27.3038069 Z M741.603579,29.8607785 L742.266127,33.8055255 C735.620295,34.9217413 728.886752,36.0880104 722.052384,37.3054852 L718.626737,37.9184951 L717.919083,33.9815894 C725.946902,32.5385994 733.834771,31.1656061 741.603579,29.8607785 Z M769.297045,25.4242864 L769.898324,29.3788362 C763.240774,30.3910986 756.497514,31.4575661 749.659764,32.5784909 L746.232975,33.1434925 L745.578638,29.197375 C753.610425,27.8655613 761.511893,26.6079977 769.297045,25.4242864 Z M1024.70358,20.4781362 C1032.18641,22.0041503 1039.42697,23.7352936 1046.42315,25.6757537 L1048.16711,26.165232 L1047.07431,30.0130611 C1040.21002,28.0635747 1033.10039,26.3200349 1025.74756,24.778612 L1023.90429,24.3974648 L1024.70358,20.4781362 Z M797.047038,21.4548151 L797.57673,25.4195882 C790.895565,26.3121898 784.127345,27.2643137 777.265956,28.2756401 L773.827469,28.7862354 L773.235702,24.8302511 C781.297439,23.624313 789.231294,22.498996 797.047038,21.4548151 Z M824.886949,18.0255184 L825.333152,22.0005533 C818.508396,22.7666414 811.589528,23.6009588 804.571989,24.5027403 L801.558418,24.8933462 L801.039943,20.9270906 C809.116021,19.8713729 817.062732,18.9037973 824.886949,18.0255184 Z M996.934997,15.8912459 C1004.44235,16.8630587 1011.74232,18.0089177 1018.83366,19.3323268 L1020.76249,19.6976613 L1020.00748,23.6257597 C1013.08654,22.2954981 1005.95935,21.137827 998.627262,20.1495516 L996.421489,19.8581476 L996.934997,15.8912459 Z M852.799563,15.228838 L853.148384,19.2135994 C846.311316,19.8121091 839.374279,20.4863298 832.334079,21.2351672 L829.310524,21.5606626 L828.877352,17.5841866 C836.984733,16.7010185 844.957188,15.9153511 852.799563,15.228838 Z M968.964843,13.135345 C976.359755,13.6510717 983.57971,14.3119598 990.624199,15.1208528 L992.965863,15.3959694 L992.488634,19.3673989 C985.543737,18.5328621 978.422455,17.8451394 971.125412,17.3015242 L968.686556,17.1256528 L968.964843,13.135345 Z M880.751449,13.1728752 L880.98643,17.1659672 C874.142074,17.5687368 867.189779,18.0559447 860.127373,18.6262172 L857.09388,18.8757014 L856.760126,14.8896497 C864.899863,14.2081046 872.895862,13.6351527 880.751449,13.1728752 Z M908.787887,11.9816707 L908.888784,15.9803979 C901.939652,16.1557397 894.868674,16.4286995 887.674437,16.7975681 L884.970818,16.9403862 L884.753663,12.946285 C892.920021,12.5022895 900.930724,12.1799241 908.787887,11.9816707 Z M940.91349,11.8867126 C948.209534,12.0388002 955.354714,12.3142083 962.349163,12.7152933 L964.965016,12.8715959 L964.716793,16.8638866 C957.809658,16.4344316 950.751072,16.1299753 943.541004,15.9482446 L940.830128,15.8858439 L940.91349,11.8867126 Z M934.296935,11.782972 L936.922162,11.8160214 L936.863753,15.8155949 C929.921549,15.7142112 922.844046,15.7231276 915.630554,15.8403571 L912.919118,15.8893915 L912.839506,11.8901838 C920.127267,11.7451056 927.279485,11.7086883 934.296935,11.782972 Z"
		  fill-opacity="0.12" fill="currentColor" fill-rule="nonzero"></path>

</svg>
